<svg width="48" height="49" viewBox="0 0 48 49" fill="none" xmlns="http://www.w3.org/2000/svg">
<path d="M47.8293 24.4011C47.9236 11.2567 37.3313 0.690624 24.1707 0.801083C11.0102 0.911543 0.265045 11.6567 0.170745 24.8011C0.0764452 37.9455 10.6687 48.5115 23.8293 48.4011C36.9898 48.2906 47.735 37.5454 47.8293 24.4011Z" fill="url(#paint0_linear_85_47)"/>
<path d="M22.1962 33.7226C21.6684 33.7905 21.1148 33.6683 20.6708 33.3109C19.7587 32.627 19.5862 31.3506 20.2854 30.4593L31.3037 16.415C32.0029 15.5238 33.3086 15.3558 34.2207 16.0398C35.1327 16.7238 35.3053 18.0002 34.6061 18.8914L23.56 32.9393C23.2225 33.3695 22.724 33.6547 22.1962 33.7226Z" fill="white"/>
<path d="M21.821 33.3716C21.2597 33.3716 20.6983 33.1909 20.2847 32.8038L12.6426 26.143C11.7858 25.3945 11.7858 24.1814 12.6426 23.4329C13.4994 22.6845 14.888 22.6845 15.7448 23.4329L23.3574 30.0937C24.2142 30.8422 24.2142 32.0553 23.3574 32.8038C22.9142 33.1651 22.3824 33.3716 21.821 33.3716Z" fill="white"/>
<defs>
<linearGradient id="paint0_linear_85_47" x1="7.0115" y1="7.57623" x2="58.3925" y2="73.4751" gradientUnits="userSpaceOnUse">
<stop stop-color="#00D004"/>
<stop offset="1" stop-color="#FFD748"/>
</linearGradient>
</defs>
</svg>
