<svg width="48" height="48" viewBox="0 0 48 48" fill="none" xmlns="http://www.w3.org/2000/svg">
<path d="M47.8293 23.8C47.9236 10.6556 37.3313 0.0895493 24.1707 0.200009C11.0102 0.310469 0.265045 11.0556 0.170745 24.2C0.0764452 37.3444 10.6687 47.9105 23.8293 47.8C36.9898 47.6895 47.735 36.9444 47.8293 23.8Z" fill="url(#paint0_linear_98_188)"/>
<path d="M33.0083 14.818C32.876 14.6856 32.7189 14.5806 32.5459 14.5089C32.3729 14.4373 32.1875 14.4004 32.0003 14.4004C31.813 14.4004 31.6276 14.4373 31.4546 14.5089C31.2817 14.5806 31.1245 14.6856 30.9923 14.818L24.0005 21.7868L17.0088 14.8037C16.8764 14.6715 16.7192 14.5666 16.5463 14.4951C16.3733 14.4235 16.1879 14.3867 16.0007 14.3867C15.8135 14.3867 15.6282 14.4235 15.4552 14.4951C15.2823 14.5666 15.1251 14.6715 14.9927 14.8037C14.8604 14.9359 14.7553 15.0929 14.6837 15.2656C14.6121 15.4384 14.5752 15.6235 14.5752 15.8105C14.5752 15.9975 14.6121 16.1826 14.6837 16.3554C14.7553 16.5281 14.8604 16.6851 14.9927 16.8173L21.9845 23.8004L14.9927 30.7835C14.8604 30.9157 14.7553 31.0726 14.6837 31.2454C14.6121 31.4181 14.5752 31.6033 14.5752 31.7902C14.5752 31.9772 14.6121 32.1623 14.6837 32.3351C14.7553 32.5078 14.8604 32.6648 14.9927 32.797C15.1251 32.9292 15.2823 33.0341 15.4552 33.1056C15.6282 33.1772 15.8135 33.214 16.0007 33.214C16.1879 33.214 16.3733 33.1772 16.5463 33.1056C16.7192 33.0341 16.8764 32.9292 17.0088 32.797L24.0005 25.8139L30.9923 32.797C31.1246 32.9292 31.2818 33.0341 31.4547 33.1056C31.6277 33.1772 31.8131 33.214 32.0003 33.214C32.1875 33.214 32.3728 33.1772 32.5458 33.1056C32.7188 33.0341 32.8759 32.9292 33.0083 32.797C33.1407 32.6648 33.2457 32.5078 33.3173 32.3351C33.3889 32.1623 33.4258 31.9772 33.4258 31.7902C33.4258 31.6033 33.3889 31.4181 33.3173 31.2454C33.2457 31.0726 33.1407 30.9157 33.0083 30.7835L26.0165 23.8004L33.0083 16.8173C33.5516 16.2746 33.5516 15.3607 33.0083 14.818Z" fill="white"/>
<defs>
<linearGradient id="paint0_linear_98_188" x1="7.0115" y1="6.97516" x2="51.9734" y2="67.2169" gradientUnits="userSpaceOnUse">
<stop stop-color="#F43B00"/>
<stop offset="1" stop-color="white"/>
</linearGradient>
</defs>
</svg>
