<svg width="631" height="348" viewBox="0 0 631 348" fill="none" xmlns="http://www.w3.org/2000/svg">
<g filter="url(#filter0_d_66_108)">
<mask id="path-1-outside-1_66_108" maskUnits="userSpaceOnUse" x="163.057" y="28.9857" width="388.169" height="299.986" fill="black">
<rect fill="white" x="163.057" y="28.9857" width="388.169" height="299.986"/>
<path d="M208.033 175.107L196.676 95.917L214.668 93.3368L226.025 172.527L208.033 175.107ZM170.305 102.285L168.034 86.4472L239.495 76.1988L241.766 92.0368L170.305 102.285ZM261.645 167.418L251.778 98.6181L265.715 96.6193L269.895 125.761L269.514 125.816C268.097 115.933 269.137 108.154 272.633 102.481C276.13 96.8067 281.975 93.3823 290.169 92.2072L292.703 91.8438L294.901 107.175L290.087 107.865C284.174 108.713 279.8 110.979 276.966 114.661C274.205 118.247 273.254 123.038 274.114 129.035L279.256 164.892L261.645 167.418ZM317.773 159.369L307.907 90.5685L325.518 88.0428L335.385 156.843L317.773 159.369ZM300.167 105.127L298.277 91.9495L325.518 88.0428L327.408 101.22L300.167 105.127ZM313.187 81.4061C309.724 81.9028 307.021 81.3853 305.077 79.8537C303.205 78.2256 302.076 76.06 301.688 73.357C301.276 70.485 301.746 68.0471 303.096 66.043C304.531 64.0269 306.98 62.7705 310.444 62.2738C313.907 61.7772 316.568 62.3007 318.427 63.8443C320.287 65.388 321.422 67.5959 321.834 70.4678C322.222 73.1708 321.746 75.5666 320.408 77.655C319.057 79.6591 316.651 80.9094 313.187 81.4061ZM369.493 151.951L338.087 86.2403L356.205 83.6418L386.725 149.48L369.493 151.951ZM374.688 151.206L372.617 136.762L391.242 134.091L393.314 148.535L374.688 151.206ZM381.657 150.207L389.528 78.8629L406.507 76.428L397.748 147.899L381.657 150.207ZM432.97 142.848L423.103 74.0479L440.715 71.5221L450.582 140.322L432.97 142.848ZM415.363 88.606L413.473 75.4288L440.715 71.5221L442.605 84.6993L415.363 88.606ZM428.384 64.8854C424.92 65.3821 422.217 64.8646 420.273 63.3331C418.402 61.7049 417.272 59.5393 416.885 56.8363C416.473 53.9644 416.942 51.5264 418.293 49.5224C419.728 47.5062 422.177 46.2498 425.64 45.7531C429.103 45.2565 431.764 45.78 433.624 47.3237C435.483 48.8674 436.619 51.0752 437.03 53.9471C437.418 56.6501 436.943 59.0459 435.604 61.1344C434.254 63.1384 431.847 64.3887 428.384 64.8854ZM512.564 131.433L509.639 111.034L506.725 111.452L503.472 88.7717C502.903 84.8017 501.507 81.9846 499.286 80.3204C497.065 78.6562 493.927 78.1149 489.872 78.6963C487.76 78.9992 485.232 79.4048 482.288 79.9133C479.344 80.4218 476.363 80.9785 473.347 81.5836C470.402 82.092 467.76 82.6003 465.419 83.1084L463.275 68.1574C465.193 67.7098 467.365 67.2259 469.79 66.7057C472.216 66.1855 474.696 65.7436 477.23 65.3802C479.836 64.9202 482.28 64.5267 484.56 64.1996C491.656 63.182 497.66 63.2693 502.572 64.4613C507.569 65.6412 511.534 68.0466 514.469 71.6775C517.488 75.2962 519.458 80.3154 520.378 86.7351L526.502 129.434L512.564 131.433ZM490.646 136.387C485.662 137.102 481.142 136.845 477.087 135.616C473.116 134.375 469.838 132.259 467.254 129.267C464.754 126.264 463.171 122.439 462.505 117.793C461.778 112.725 462.41 108.411 464.399 104.849C466.473 101.276 469.633 98.3661 473.879 96.1191C478.211 93.8601 483.417 92.2944 489.499 91.4222L505.464 89.1327L506.972 99.6491L490.754 101.975C486.699 102.556 483.719 104.018 481.814 106.36C479.981 108.606 479.288 111.292 479.736 114.417C480.185 117.542 481.604 119.925 483.994 121.565C486.469 123.193 489.734 123.716 493.788 123.134C496.238 122.783 498.416 122.04 500.322 120.904C502.3 119.672 503.814 117.904 504.862 115.598C505.983 113.196 506.362 110.124 505.998 106.384L511.014 110.707C511.283 115.582 510.682 119.807 509.211 123.379C507.825 126.94 505.57 129.85 502.446 132.108C499.394 134.27 495.46 135.696 490.646 136.387ZM271.928 314.973C266.606 315.736 261.864 315.727 257.7 314.944C253.632 314.235 250.252 312.306 247.559 309.157C244.879 306.093 243.09 301.436 242.194 295.185L240.304 282.008L257.029 279.61L259.082 293.927C259.458 296.546 260.46 298.428 262.09 299.573C263.816 300.791 265.947 301.219 268.481 300.855L282.925 298.784L284.978 313.101L271.928 314.973ZM250.628 292.683C242.265 293.882 234.789 293.446 228.199 291.374C221.693 289.289 216.074 286.173 211.341 282.024C206.68 277.779 202.943 273.056 200.128 267.856C197.386 262.56 195.645 257.336 194.906 252.183L194.506 249.395C193.695 243.736 193.903 237.973 195.13 232.108C196.346 226.158 198.654 220.611 202.054 215.468C205.539 210.313 210.129 205.948 215.823 202.373C221.505 198.713 228.443 196.296 236.636 195.121C244.745 193.958 252.04 194.334 258.522 196.25C264.991 198.08 270.58 200.986 275.289 204.966C280.082 208.933 283.898 213.601 286.737 218.97C289.564 224.254 291.383 229.726 292.195 235.386L292.595 238.173C293.333 243.326 293.089 248.835 291.861 254.701C290.706 260.47 288.446 266.052 285.082 271.449C281.791 276.748 277.274 281.318 271.531 285.159C265.874 288.988 258.906 291.496 250.628 292.683ZM248.229 275.958C252.959 275.28 257.062 273.829 260.536 271.607C264.095 269.372 266.972 266.589 269.166 263.257C271.433 259.829 272.97 256.117 273.776 252.122C274.655 248.03 274.785 243.831 274.167 239.523C273.501 234.877 272.171 230.714 270.178 227.035C268.27 223.343 265.758 220.255 262.643 217.77C259.612 215.274 256.082 213.496 252.05 212.436C248.019 211.376 243.68 211.18 239.035 211.846C234.304 212.524 230.154 213.939 226.583 216.089C223.012 218.239 220.081 220.943 217.79 224.203C215.583 227.45 214.04 231.12 213.162 235.212C212.367 239.291 212.303 243.654 212.97 248.299C213.587 252.607 214.851 256.607 216.759 260.299C218.741 263.894 221.258 267.024 224.313 269.69C227.44 272.258 231.025 274.115 235.069 275.259C239.112 276.403 243.499 276.636 248.229 275.958ZM338.807 279.778C330.867 280.917 324.325 279.183 319.182 274.576C314.123 269.956 310.854 262.494 309.376 252.189L303.652 212.277L321.264 209.751L327.206 251.183C327.812 255.407 329.479 258.616 332.207 260.811C334.924 262.921 338.309 263.686 342.364 263.104C346.418 262.523 349.525 260.741 351.683 257.759C353.926 254.765 354.727 251.03 354.085 246.553L348.252 205.881L365.864 203.355L375.749 272.282L361.811 274.281L357.614 245.012L359.008 244.812C360.001 251.739 359.944 257.652 358.836 262.552C357.729 267.453 355.571 271.34 352.362 274.213C349.154 277.087 344.889 278.906 339.567 279.669L338.807 279.778ZM399.274 268.908L389.407 200.108L407.019 197.582L416.886 266.382L399.274 268.908ZM381.668 214.666L379.778 201.489L407.019 197.582L408.909 210.759L381.668 214.666ZM394.688 190.946C391.225 191.442 388.521 190.925 386.578 189.393C384.706 187.765 383.577 185.599 383.189 182.896C382.777 180.025 383.246 177.587 384.597 175.583C386.032 173.566 388.481 172.31 391.944 171.813C395.407 171.317 398.069 171.84 399.928 173.384C401.787 174.928 402.923 177.135 403.335 180.007C403.722 182.71 403.247 185.106 401.909 187.195C400.558 189.199 398.151 190.449 394.688 190.946ZM432.749 264.107L430.75 250.17L458.855 204.502L459.146 206.529L455.977 203.363L458.276 204.067L424.699 208.883L422.755 195.326L475.21 187.803L477.209 201.74L449.104 247.409L448.831 245.508L452.127 248.656L449.81 247.824L484.527 242.846L486.471 256.403L432.749 264.107Z"/>
</mask>
<path d="M208.033 175.107L196.676 95.917L214.668 93.3368L226.025 172.527L208.033 175.107ZM170.305 102.285L168.034 86.4472L239.495 76.1988L241.766 92.0368L170.305 102.285ZM261.645 167.418L251.778 98.6181L265.715 96.6193L269.895 125.761L269.514 125.816C268.097 115.933 269.137 108.154 272.633 102.481C276.13 96.8067 281.975 93.3823 290.169 92.2072L292.703 91.8438L294.901 107.175L290.087 107.865C284.174 108.713 279.8 110.979 276.966 114.661C274.205 118.247 273.254 123.038 274.114 129.035L279.256 164.892L261.645 167.418ZM317.773 159.369L307.907 90.5685L325.518 88.0428L335.385 156.843L317.773 159.369ZM300.167 105.127L298.277 91.9495L325.518 88.0428L327.408 101.22L300.167 105.127ZM313.187 81.4061C309.724 81.9028 307.021 81.3853 305.077 79.8537C303.205 78.2256 302.076 76.06 301.688 73.357C301.276 70.485 301.746 68.0471 303.096 66.043C304.531 64.0269 306.98 62.7705 310.444 62.2738C313.907 61.7772 316.568 62.3007 318.427 63.8443C320.287 65.388 321.422 67.5959 321.834 70.4678C322.222 73.1708 321.746 75.5666 320.408 77.655C319.057 79.6591 316.651 80.9094 313.187 81.4061ZM369.493 151.951L338.087 86.2403L356.205 83.6418L386.725 149.48L369.493 151.951ZM374.688 151.206L372.617 136.762L391.242 134.091L393.314 148.535L374.688 151.206ZM381.657 150.207L389.528 78.8629L406.507 76.428L397.748 147.899L381.657 150.207ZM432.97 142.848L423.103 74.0479L440.715 71.5221L450.582 140.322L432.97 142.848ZM415.363 88.606L413.473 75.4288L440.715 71.5221L442.605 84.6993L415.363 88.606ZM428.384 64.8854C424.92 65.3821 422.217 64.8646 420.273 63.3331C418.402 61.7049 417.272 59.5393 416.885 56.8363C416.473 53.9644 416.942 51.5264 418.293 49.5224C419.728 47.5062 422.177 46.2498 425.64 45.7531C429.103 45.2565 431.764 45.78 433.624 47.3237C435.483 48.8674 436.619 51.0752 437.03 53.9471C437.418 56.6501 436.943 59.0459 435.604 61.1344C434.254 63.1384 431.847 64.3887 428.384 64.8854ZM512.564 131.433L509.639 111.034L506.725 111.452L503.472 88.7717C502.903 84.8017 501.507 81.9846 499.286 80.3204C497.065 78.6562 493.927 78.1149 489.872 78.6963C487.76 78.9992 485.232 79.4048 482.288 79.9133C479.344 80.4218 476.363 80.9785 473.347 81.5836C470.402 82.092 467.76 82.6003 465.419 83.1084L463.275 68.1574C465.193 67.7098 467.365 67.2259 469.79 66.7057C472.216 66.1855 474.696 65.7436 477.23 65.3802C479.836 64.9202 482.28 64.5267 484.56 64.1996C491.656 63.182 497.66 63.2693 502.572 64.4613C507.569 65.6412 511.534 68.0466 514.469 71.6775C517.488 75.2962 519.458 80.3154 520.378 86.7351L526.502 129.434L512.564 131.433ZM490.646 136.387C485.662 137.102 481.142 136.845 477.087 135.616C473.116 134.375 469.838 132.259 467.254 129.267C464.754 126.264 463.171 122.439 462.505 117.793C461.778 112.725 462.41 108.411 464.399 104.849C466.473 101.276 469.633 98.3661 473.879 96.1191C478.211 93.8601 483.417 92.2944 489.499 91.4222L505.464 89.1327L506.972 99.6491L490.754 101.975C486.699 102.556 483.719 104.018 481.814 106.36C479.981 108.606 479.288 111.292 479.736 114.417C480.185 117.542 481.604 119.925 483.994 121.565C486.469 123.193 489.734 123.716 493.788 123.134C496.238 122.783 498.416 122.04 500.322 120.904C502.3 119.672 503.814 117.904 504.862 115.598C505.983 113.196 506.362 110.124 505.998 106.384L511.014 110.707C511.283 115.582 510.682 119.807 509.211 123.379C507.825 126.94 505.57 129.85 502.446 132.108C499.394 134.27 495.46 135.696 490.646 136.387ZM271.928 314.973C266.606 315.736 261.864 315.727 257.7 314.944C253.632 314.235 250.252 312.306 247.559 309.157C244.879 306.093 243.09 301.436 242.194 295.185L240.304 282.008L257.029 279.61L259.082 293.927C259.458 296.546 260.46 298.428 262.09 299.573C263.816 300.791 265.947 301.219 268.481 300.855L282.925 298.784L284.978 313.101L271.928 314.973ZM250.628 292.683C242.265 293.882 234.789 293.446 228.199 291.374C221.693 289.289 216.074 286.173 211.341 282.024C206.68 277.779 202.943 273.056 200.128 267.856C197.386 262.56 195.645 257.336 194.906 252.183L194.506 249.395C193.695 243.736 193.903 237.973 195.13 232.108C196.346 226.158 198.654 220.611 202.054 215.468C205.539 210.313 210.129 205.948 215.823 202.373C221.505 198.713 228.443 196.296 236.636 195.121C244.745 193.958 252.04 194.334 258.522 196.25C264.991 198.08 270.58 200.986 275.289 204.966C280.082 208.933 283.898 213.601 286.737 218.97C289.564 224.254 291.383 229.726 292.195 235.386L292.595 238.173C293.333 243.326 293.089 248.835 291.861 254.701C290.706 260.47 288.446 266.052 285.082 271.449C281.791 276.748 277.274 281.318 271.531 285.159C265.874 288.988 258.906 291.496 250.628 292.683ZM248.229 275.958C252.959 275.28 257.062 273.829 260.536 271.607C264.095 269.372 266.972 266.589 269.166 263.257C271.433 259.829 272.97 256.117 273.776 252.122C274.655 248.03 274.785 243.831 274.167 239.523C273.501 234.877 272.171 230.714 270.178 227.035C268.27 223.343 265.758 220.255 262.643 217.77C259.612 215.274 256.082 213.496 252.05 212.436C248.019 211.376 243.68 211.18 239.035 211.846C234.304 212.524 230.154 213.939 226.583 216.089C223.012 218.239 220.081 220.943 217.79 224.203C215.583 227.45 214.04 231.12 213.162 235.212C212.367 239.291 212.303 243.654 212.97 248.299C213.587 252.607 214.851 256.607 216.759 260.299C218.741 263.894 221.258 267.024 224.313 269.69C227.44 272.258 231.025 274.115 235.069 275.259C239.112 276.403 243.499 276.636 248.229 275.958ZM338.807 279.778C330.867 280.917 324.325 279.183 319.182 274.576C314.123 269.956 310.854 262.494 309.376 252.189L303.652 212.277L321.264 209.751L327.206 251.183C327.812 255.407 329.479 258.616 332.207 260.811C334.924 262.921 338.309 263.686 342.364 263.104C346.418 262.523 349.525 260.741 351.683 257.759C353.926 254.765 354.727 251.03 354.085 246.553L348.252 205.881L365.864 203.355L375.749 272.282L361.811 274.281L357.614 245.012L359.008 244.812C360.001 251.739 359.944 257.652 358.836 262.552C357.729 267.453 355.571 271.34 352.362 274.213C349.154 277.087 344.889 278.906 339.567 279.669L338.807 279.778ZM399.274 268.908L389.407 200.108L407.019 197.582L416.886 266.382L399.274 268.908ZM381.668 214.666L379.778 201.489L407.019 197.582L408.909 210.759L381.668 214.666ZM394.688 190.946C391.225 191.442 388.521 190.925 386.578 189.393C384.706 187.765 383.577 185.599 383.189 182.896C382.777 180.025 383.246 177.587 384.597 175.583C386.032 173.566 388.481 172.31 391.944 171.813C395.407 171.317 398.069 171.84 399.928 173.384C401.787 174.928 402.923 177.135 403.335 180.007C403.722 182.71 403.247 185.106 401.909 187.195C400.558 189.199 398.151 190.449 394.688 190.946ZM432.749 264.107L430.75 250.17L458.855 204.502L459.146 206.529L455.977 203.363L458.276 204.067L424.699 208.883L422.755 195.326L475.21 187.803L477.209 201.74L449.104 247.409L448.831 245.508L452.127 248.656L449.81 247.824L484.527 242.846L486.471 256.403L432.749 264.107Z" fill="white"/>
<path d="M208.033 175.107L205.064 175.533L205.489 178.502L208.459 178.076L208.033 175.107ZM196.676 95.917L196.25 92.9474L193.281 93.3733L193.707 96.3429L196.676 95.917ZM214.668 93.3368L217.638 92.9109L217.212 89.9413L214.242 90.3671L214.668 93.3368ZM226.025 172.527L226.451 175.496L229.421 175.07L228.995 172.101L226.025 172.527ZM170.305 102.285L167.336 102.711L167.762 105.681L170.731 105.255L170.305 102.285ZM168.034 86.4472L167.608 83.4776L164.638 83.9035L165.064 86.8731L168.034 86.4472ZM239.495 76.1988L242.464 75.7729L242.038 72.8033L239.069 73.2292L239.495 76.1988ZM241.766 92.0368L242.192 95.0064L245.162 94.5805L244.736 91.6109L241.766 92.0368ZM211.003 174.681L199.646 95.4912L193.707 96.3429L205.064 175.533L211.003 174.681ZM197.102 98.8867L215.094 96.3064L214.242 90.3671L196.25 92.9474L197.102 98.8867ZM211.699 93.7626L223.055 172.952L228.995 172.101L217.638 92.9109L211.699 93.7626ZM225.599 169.557L207.607 172.137L208.459 178.076L226.451 175.496L225.599 169.557ZM173.275 101.859L171.004 86.0213L165.064 86.8731L167.336 102.711L173.275 101.859ZM168.46 89.4168L239.921 79.1684L239.069 73.2292L167.608 83.4776L168.46 89.4168ZM236.525 76.6247L238.797 92.4626L244.736 91.6109L242.464 75.7729L236.525 76.6247ZM241.34 89.0671L169.879 99.3156L170.731 105.255L242.192 95.0064L241.34 89.0671ZM261.645 167.418L258.675 167.844L259.101 170.814L262.071 170.388L261.645 167.418ZM251.778 98.6181L251.352 95.6485L248.382 96.0744L248.808 99.044L251.778 98.6181ZM265.715 96.6193L268.685 96.1934L268.259 93.2238L265.289 93.6497L265.715 96.6193ZM269.895 125.761L270.32 128.731L273.29 128.305L272.864 125.335L269.895 125.761ZM269.514 125.816L266.545 126.242L266.971 129.211L269.94 128.785L269.514 125.816ZM272.633 102.481L275.187 104.055L275.187 104.055L272.633 102.481ZM292.703 91.8438L295.672 91.4179L295.246 88.4483L292.277 88.8742L292.703 91.8438ZM294.901 107.175L295.327 110.145L298.297 109.719L297.871 106.749L294.901 107.175ZM276.966 114.661L279.343 116.491L279.344 116.491L276.966 114.661ZM279.256 164.892L279.682 167.862L282.652 167.436L282.226 164.467L279.256 164.892ZM264.614 166.992L254.747 98.1923L248.808 99.044L258.675 167.844L264.614 166.992ZM252.204 101.588L266.141 99.5889L265.289 93.6497L251.352 95.6485L252.204 101.588ZM262.746 97.0452L266.925 126.187L272.864 125.335L268.685 96.1934L262.746 97.0452ZM269.469 122.792L269.089 122.846L269.94 128.785L270.32 128.731L269.469 122.792ZM272.484 125.39C271.119 115.868 272.204 108.896 275.187 104.055L270.079 100.907C266.07 107.413 265.076 115.997 266.545 126.242L272.484 125.39ZM275.187 104.055C278.106 99.3182 283.05 96.2589 290.594 95.1769L289.743 89.2376C280.9 90.5057 274.154 94.2953 270.079 100.907L275.187 104.055ZM290.594 95.1769L293.128 94.8134L292.277 88.8742L289.743 89.2376L290.594 95.1769ZM289.733 92.2697L291.932 107.601L297.871 106.749L295.672 91.4179L289.733 92.2697ZM294.475 104.205L289.661 104.896L290.512 110.835L295.327 110.145L294.475 104.205ZM289.661 104.896C283.204 105.822 278.025 108.366 274.589 112.831L279.344 116.491C281.575 113.591 285.143 111.605 290.512 110.835L289.661 104.896ZM274.59 112.83C271.184 117.252 270.21 122.944 271.144 129.461L277.084 128.609C276.298 123.132 277.225 119.241 279.343 116.491L274.59 112.83ZM271.144 129.461L276.287 165.318L282.226 164.467L277.084 128.609L271.144 129.461ZM278.831 161.923L261.219 164.449L262.071 170.388L279.682 167.862L278.831 161.923ZM317.773 159.369L314.804 159.795L315.23 162.764L318.199 162.338L317.773 159.369ZM307.907 90.5685L307.481 87.5989L304.511 88.0248L304.937 90.9944L307.907 90.5685ZM325.518 88.0428L328.488 87.6169L328.062 84.6473L325.092 85.0732L325.518 88.0428ZM335.385 156.843L335.811 159.812L338.781 159.387L338.355 156.417L335.385 156.843ZM300.167 105.127L297.197 105.553L297.623 108.522L300.593 108.096L300.167 105.127ZM298.277 91.9495L297.851 88.9799L294.882 89.4058L295.307 92.3754L298.277 91.9495ZM325.518 88.0428L328.488 87.6169L328.062 84.6473L325.092 85.0732L325.518 88.0428ZM327.408 101.22L327.834 104.19L330.804 103.764L330.378 100.794L327.408 101.22ZM305.077 79.8537L303.108 82.1171L303.163 82.165L303.22 82.2101L305.077 79.8537ZM303.096 66.043L300.652 64.3034L300.63 64.3347L300.608 64.3665L303.096 66.043ZM318.427 63.8443L316.511 66.1525L316.511 66.1525L318.427 63.8443ZM320.408 77.655L322.896 79.3316L322.915 79.3029L322.934 79.2737L320.408 77.655ZM320.743 158.943L310.876 90.1427L304.937 90.9944L314.804 159.795L320.743 158.943ZM308.332 93.5382L325.944 91.0124L325.092 85.0732L307.481 87.5989L308.332 93.5382ZM322.549 88.4687L332.416 157.269L338.355 156.417L328.488 87.6169L322.549 88.4687ZM334.959 153.873L317.348 156.399L318.199 162.338L335.811 159.812L334.959 153.873ZM303.136 104.701L301.247 91.5236L295.307 92.3754L297.197 105.553L303.136 104.701ZM298.703 94.9191L325.944 91.0124L325.092 85.0732L297.851 88.9799L298.703 94.9191ZM322.549 88.4687L324.439 101.646L330.378 100.794L328.488 87.6169L322.549 88.4687ZM326.982 98.2503L299.741 102.157L300.593 108.096L327.834 104.19L326.982 98.2503ZM312.761 78.4365C309.768 78.8657 308.003 78.3403 306.934 77.4973L303.22 82.2101C306.038 84.4303 309.68 84.9398 313.613 84.3757L312.761 78.4365ZM307.046 77.5904C305.774 76.4837 304.954 74.9987 304.658 72.9311L298.719 73.7829C299.197 77.1213 300.637 79.9675 303.108 82.1171L307.046 77.5904ZM304.658 72.9311C304.329 70.6398 304.729 68.9877 305.584 67.7196L300.608 64.3665C298.762 67.1064 298.223 70.3303 298.719 73.7829L304.658 72.9311ZM305.54 67.7826C306.33 66.673 307.876 65.6727 310.869 65.2434L310.018 59.3042C306.084 59.8683 302.732 61.3808 300.652 64.3034L305.54 67.7826ZM310.869 65.2434C313.876 64.8123 315.551 65.3559 316.511 66.1525L320.344 61.5362C317.585 59.2455 313.937 58.7421 310.018 59.3042L310.869 65.2434ZM316.511 66.1525C317.688 67.1293 318.536 68.6024 318.864 70.8937L324.804 70.0419C324.309 66.5894 322.886 63.6467 320.344 61.5362L316.511 66.1525ZM318.864 70.8937C319.161 72.9612 318.792 74.6167 317.882 76.0364L322.934 79.2737C324.701 76.5164 325.282 73.3804 324.804 70.0419L318.864 70.8937ZM317.92 75.9785C317.223 77.0127 315.768 78.0053 312.761 78.4365L313.613 84.3757C317.533 83.8135 320.892 82.3054 322.896 79.3316L317.92 75.9785ZM369.493 151.951L366.786 153.245L367.737 155.234L369.919 154.921L369.493 151.951ZM338.087 86.2403L337.661 83.2707L333.619 83.8503L335.38 87.534L338.087 86.2403ZM356.205 83.6418L358.927 82.3802L357.989 80.3554L355.78 80.6722L356.205 83.6418ZM386.725 149.48L387.151 152.45L391.143 151.877L389.447 148.218L386.725 149.48ZM374.688 151.206L371.718 151.632L372.144 154.602L375.114 154.176L374.688 151.206ZM372.617 136.762L372.191 133.792L369.221 134.218L369.647 137.188L372.617 136.762ZM391.242 134.091L394.212 133.665L393.786 130.695L390.816 131.121L391.242 134.091ZM393.314 148.535L393.739 151.505L396.709 151.079L396.283 148.109L393.314 148.535ZM381.657 150.207L378.675 149.878L378.25 153.726L382.083 153.177L381.657 150.207ZM389.528 78.8629L389.103 75.8933L386.801 76.2233L386.547 78.5339L389.528 78.8629ZM406.507 76.428L409.484 76.7929L409.961 72.9018L406.081 73.4584L406.507 76.428ZM397.748 147.899L398.174 150.869L400.447 150.543L400.726 148.264L397.748 147.899ZM372.2 150.658L340.794 84.9466L335.38 87.534L366.786 153.245L372.2 150.658ZM338.513 89.2099L356.631 86.6115L355.78 80.6722L337.661 83.2707L338.513 89.2099ZM353.484 84.9035L384.003 150.742L389.447 148.218L358.927 82.3802L353.484 84.9035ZM386.299 146.51L369.067 148.982L369.919 154.921L387.151 152.45L386.299 146.51ZM377.658 150.78L375.586 136.336L369.647 137.188L371.718 151.632L377.658 150.78ZM373.042 139.732L391.668 137.061L390.816 131.121L372.191 133.792L373.042 139.732ZM388.272 134.517L390.344 148.961L396.283 148.109L394.212 133.665L388.272 134.517ZM392.888 145.566L374.262 148.237L375.114 154.176L393.739 151.505L392.888 145.566ZM384.639 150.536L392.51 79.1919L386.547 78.5339L378.675 149.878L384.639 150.536ZM389.954 81.8325L406.933 79.3976L406.081 73.4584L389.103 75.8933L389.954 81.8325ZM403.529 76.0631L394.77 147.534L400.726 148.264L409.484 76.7929L403.529 76.0631ZM397.322 144.93L381.231 147.237L382.083 153.177L398.174 150.869L397.322 144.93ZM432.97 142.848L430 143.274L430.426 146.243L433.396 145.818L432.97 142.848ZM423.103 74.0479L422.677 71.0782L419.707 71.5041L420.133 74.4737L423.103 74.0479ZM440.715 71.5221L443.684 71.0962L443.258 68.1266L440.289 68.5525L440.715 71.5221ZM450.582 140.322L451.007 143.292L453.977 142.866L453.551 139.896L450.582 140.322ZM415.363 88.606L412.394 89.0319L412.82 92.0015L415.789 91.5756L415.363 88.606ZM413.473 75.4288L413.048 72.4592L410.078 72.8851L410.504 75.8547L413.473 75.4288ZM440.715 71.5221L443.684 71.0962L443.258 68.1266L440.289 68.5525L440.715 71.5221ZM442.605 84.6993L443.03 87.6689L446 87.243L445.574 84.2734L442.605 84.6993ZM420.273 63.3331L418.304 65.5964L418.359 65.6443L418.417 65.6895L420.273 63.3331ZM418.293 49.5224L415.848 47.7827L415.826 47.814L415.805 47.8458L418.293 49.5224ZM433.624 47.3237L431.707 49.6318L431.707 49.6318L433.624 47.3237ZM435.604 61.1344L438.092 62.8109L438.111 62.7822L438.13 62.7531L435.604 61.1344ZM435.939 142.422L426.073 73.622L420.133 74.4737L430 143.274L435.939 142.422ZM423.529 77.0175L441.141 74.4917L440.289 68.5525L422.677 71.0782L423.529 77.0175ZM437.745 71.948L447.612 140.748L453.551 139.896L443.684 71.0962L437.745 71.948ZM450.156 137.353L432.544 139.878L433.396 145.818L451.007 143.292L450.156 137.353ZM418.333 88.1802L416.443 75.003L410.504 75.8547L412.394 89.0319L418.333 88.1802ZM413.899 78.3985L441.141 74.4917L440.289 68.5525L413.048 72.4592L413.899 78.3985ZM437.745 71.948L439.635 85.1252L445.574 84.2734L443.684 71.0962L437.745 71.948ZM442.179 81.7297L414.937 85.6364L415.789 91.5756L443.03 87.6689L442.179 81.7297ZM427.958 61.9158C424.965 62.345 423.2 61.8196 422.13 60.9766L418.417 65.6895C421.234 67.9096 424.876 68.4191 428.81 67.855L427.958 61.9158ZM422.242 61.0697C420.97 59.963 420.151 58.478 419.854 56.4104L413.915 57.2622C414.394 60.6007 415.833 63.4468 418.304 65.5964L422.242 61.0697ZM419.854 56.4104C419.526 54.1191 419.926 52.467 420.78 51.1989L415.805 47.8458C413.958 50.5857 413.42 53.8096 413.915 57.2622L419.854 56.4104ZM420.737 51.262C421.526 50.1523 423.073 49.152 426.066 48.7228L425.214 42.7835C421.281 43.3476 417.929 44.8602 415.848 47.7827L420.737 51.262ZM426.066 48.7228C429.072 48.2916 430.748 48.8352 431.707 49.6318L435.54 45.0155C432.781 42.7248 429.134 42.2214 425.214 42.7835L426.066 48.7228ZM431.707 49.6318C432.884 50.6087 433.732 52.0817 434.061 54.373L440 53.5212C439.505 50.0687 438.082 47.1261 435.54 45.0155L431.707 49.6318ZM434.061 54.373C434.357 56.4406 433.988 58.096 433.078 59.5157L438.13 62.7531C439.897 59.9958 440.479 56.8597 440 53.5212L434.061 54.373ZM433.117 59.4578C432.42 60.492 430.964 61.4846 427.958 61.9158L428.81 67.855C432.729 67.2929 436.088 65.7847 438.092 62.8109L433.117 59.4578ZM512.564 131.433L509.595 131.859L510.021 134.829L512.99 134.403L512.564 131.433ZM509.639 111.034L512.609 110.608L512.183 107.638L509.213 108.064L509.639 111.034ZM506.725 111.452L503.755 111.878L504.181 114.847L507.151 114.421L506.725 111.452ZM482.288 79.9133L482.799 82.8695L482.288 79.9133ZM473.347 81.5836L473.857 84.5398L473.897 84.5329L473.937 84.525L473.347 81.5836ZM465.419 83.1084L462.449 83.5343L462.907 86.7236L466.055 86.0402L465.419 83.1084ZM463.275 68.1574L462.593 65.2358L459.915 65.8607L460.305 68.5833L463.275 68.1574ZM469.79 66.7057L469.161 63.7724L469.79 66.7057ZM477.23 65.3802L477.656 68.3498L477.703 68.343L477.751 68.3345L477.23 65.3802ZM502.572 64.4613L501.864 67.3767L501.873 67.3789L501.882 67.381L502.572 64.4613ZM514.469 71.6775L512.136 73.5632L512.15 73.5814L512.165 73.5993L514.469 71.6775ZM526.502 129.434L526.928 132.404L529.897 131.978L529.471 129.008L526.502 129.434ZM477.087 135.616L476.192 138.479L476.205 138.483L476.217 138.487L477.087 135.616ZM467.254 129.267L464.948 131.186L464.966 131.208L464.984 131.229L467.254 129.267ZM464.399 104.849L461.804 103.344L461.792 103.365L461.78 103.386L464.399 104.849ZM473.879 96.1191L472.492 93.4592L472.484 93.4633L472.476 93.4674L473.879 96.1191ZM505.464 89.1327L508.433 88.7068L508.007 85.7372L505.038 86.163L505.464 89.1327ZM506.972 99.6491L507.398 102.619L510.367 102.193L509.941 99.2232L506.972 99.6491ZM481.814 106.36L484.138 108.258L484.141 108.254L481.814 106.36ZM483.994 121.565L482.297 124.039L482.321 124.055L482.346 124.071L483.994 121.565ZM500.322 120.904L501.857 123.482L501.882 123.467L501.908 123.451L500.322 120.904ZM504.862 115.598L502.144 114.329L502.138 114.343L502.132 114.356L504.862 115.598ZM505.998 106.384L507.956 104.111L502.287 99.2248L503.012 106.674L505.998 106.384ZM511.014 110.707L514.01 110.542L513.94 109.268L512.973 108.435L511.014 110.707ZM509.211 123.379L506.437 122.238L506.426 122.264L506.415 122.291L509.211 123.379ZM502.446 132.108L504.18 134.556L504.192 134.548L504.203 134.54L502.446 132.108ZM515.534 131.007L512.609 110.608L506.669 111.46L509.595 131.859L515.534 131.007ZM509.213 108.064L506.299 108.482L507.151 114.421L510.065 114.003L509.213 108.064ZM509.694 111.026L506.442 88.3458L500.502 89.1976L503.755 111.878L509.694 111.026ZM506.442 88.3458C505.81 83.9396 504.18 80.238 501.085 77.9194L497.487 82.7214C498.835 83.7311 499.996 85.6637 500.502 89.1976L506.442 88.3458ZM501.085 77.9194C497.978 75.592 493.916 75.0857 489.446 75.7267L490.298 81.666C493.938 81.144 496.151 81.7204 497.487 82.7214L501.085 77.9194ZM489.446 75.7267C487.298 76.0349 484.74 76.4455 481.777 76.9571L482.799 82.8695C485.725 82.3642 488.223 81.9635 490.298 81.666L489.446 75.7267ZM481.777 76.9571C478.806 77.4702 475.799 78.032 472.757 78.6421L473.937 84.525C476.928 83.9251 479.882 83.3733 482.799 82.8695L481.777 76.9571ZM472.836 78.6273C469.859 79.1414 467.174 79.6576 464.782 80.1767L466.055 86.0402C468.346 85.543 470.945 85.0427 473.857 84.5398L472.836 78.6273ZM468.388 82.6826L466.244 67.7315L460.305 68.5833L462.449 83.5343L468.388 82.6826ZM463.956 71.079C465.853 70.6363 468.008 70.1564 470.42 69.639L469.161 63.7724C466.723 64.2955 464.533 64.7833 462.593 65.2358L463.956 71.079ZM470.42 69.639C472.776 69.1336 475.187 68.7038 477.656 68.3498L476.804 62.4106C474.204 62.7835 471.656 63.2373 469.161 63.7724L470.42 69.639ZM477.751 68.3345C480.33 67.8793 482.742 67.4911 484.986 67.1692L484.134 61.23C481.818 61.5622 479.342 61.9611 476.708 62.4259L477.751 68.3345ZM484.986 67.1692C491.85 66.1849 497.443 66.3038 501.864 67.3767L503.279 61.5459C497.876 60.2347 491.462 60.1791 484.134 61.23L484.986 67.1692ZM501.882 67.381C506.3 68.4242 509.661 70.5019 512.136 73.5632L516.802 69.7918C513.407 65.5914 508.837 62.8583 503.261 61.5416L501.882 67.381ZM512.165 73.5993C514.718 76.6589 516.538 81.0928 517.409 87.161L523.348 86.3092C522.377 79.538 520.258 73.9336 516.772 69.7557L512.165 73.5993ZM517.409 87.161L523.532 129.86L529.471 129.008L523.348 86.3092L517.409 87.161ZM526.076 126.465L512.139 128.463L512.99 134.403L526.928 132.404L526.076 126.465ZM490.22 133.417C485.589 134.081 481.521 133.825 477.957 132.745L476.217 138.487C480.764 139.864 485.735 140.122 491.072 139.356L490.22 133.417ZM477.982 132.752C474.515 131.669 471.723 129.852 469.524 127.306L464.984 131.229C467.953 134.666 471.717 137.081 476.192 138.479L477.982 132.752ZM469.56 127.348C467.481 124.85 466.078 121.575 465.475 117.367L459.536 118.219C460.265 123.303 462.028 127.677 464.948 131.186L469.56 127.348ZM465.475 117.367C464.817 112.782 465.424 109.166 467.018 106.312L461.78 103.386C459.395 107.655 458.74 112.669 459.536 118.219L465.475 117.367ZM466.993 106.355C468.742 103.343 471.45 100.799 475.282 98.7708L472.476 93.4674C467.815 95.9336 464.203 99.2096 461.804 103.344L466.993 106.355ZM475.267 98.779C479.231 96.7113 484.096 95.2278 489.925 94.3918L489.073 88.4526C482.738 89.3611 477.19 91.0088 472.492 93.4592L475.267 98.779ZM489.925 94.3918L505.889 92.1023L505.038 86.163L489.073 88.4526L489.925 94.3918ZM502.494 89.5585L504.002 100.075L509.941 99.2232L508.433 88.7068L502.494 89.5585ZM506.546 96.6795L490.328 99.0053L491.18 104.945L507.398 102.619L506.546 96.6795ZM490.328 99.0053C485.797 99.6551 482.016 101.358 479.487 104.467L484.141 108.254C485.422 106.678 487.601 105.458 491.18 104.945L490.328 99.0053ZM479.49 104.463C477.075 107.421 476.211 110.97 476.767 114.843L482.706 113.991C482.365 111.614 482.886 109.791 484.138 108.258L479.49 104.463ZM476.767 114.843C477.322 118.716 479.149 121.879 482.297 124.039L485.691 119.091C484.059 117.971 483.047 116.369 482.706 113.991L476.767 114.843ZM482.346 124.071C485.632 126.233 489.713 126.75 494.214 126.104L493.362 120.165C489.755 120.682 487.306 120.153 485.643 119.059L482.346 124.071ZM494.214 126.104C497.01 125.703 499.573 124.842 501.857 123.482L498.786 118.327C497.258 119.238 495.465 119.863 493.362 120.165L494.214 126.104ZM501.908 123.451C504.432 121.879 506.322 119.635 507.593 116.84L502.132 114.356C501.306 116.172 500.169 117.465 498.736 118.358L501.908 123.451ZM507.581 116.867C509.005 113.816 509.379 110.157 508.984 106.093L503.012 106.674C503.345 110.092 502.962 112.576 502.144 114.329L507.581 116.867ZM504.039 108.656L509.056 112.98L512.973 108.435L507.956 104.111L504.039 108.656ZM508.019 110.872C508.269 115.415 507.698 119.173 506.437 122.238L511.985 124.521C513.665 120.441 514.296 115.75 514.01 110.542L508.019 110.872ZM506.415 122.291C505.241 125.309 503.349 127.754 500.688 129.677L504.203 134.54C507.791 131.946 510.409 128.572 512.007 124.468L506.415 122.291ZM500.712 129.66C498.147 131.477 494.7 132.775 490.22 133.417L491.072 139.356C496.221 138.618 500.64 137.063 504.18 134.556L500.712 129.66ZM257.7 314.944L258.253 311.996L258.234 311.992L258.215 311.989L257.7 314.944ZM247.559 309.157L249.839 307.207L249.828 307.194L249.817 307.182L247.559 309.157ZM240.304 282.008L239.878 279.039L236.908 279.465L237.334 282.434L240.304 282.008ZM257.029 279.61L259.998 279.184L259.572 276.214L256.603 276.64L257.029 279.61ZM262.09 299.573L263.819 297.122L263.815 297.119L262.09 299.573ZM282.925 298.784L285.895 298.358L285.469 295.388L282.499 295.814L282.925 298.784ZM284.978 313.101L285.404 316.071L288.374 315.645L287.948 312.675L284.978 313.101ZM228.199 291.374L227.283 294.231L227.291 294.233L227.299 294.235L228.199 291.374ZM211.341 282.024L209.32 284.242L209.342 284.261L209.363 284.28L211.341 282.024ZM200.128 267.856L197.464 269.236L197.477 269.26L197.49 269.285L200.128 267.856ZM195.13 232.108L198.067 232.722L198.068 232.715L198.07 232.708L195.13 232.108ZM202.054 215.468L199.569 213.788L199.56 213.801L199.552 213.814L202.054 215.468ZM215.823 202.373L217.418 204.914L217.433 204.905L217.447 204.895L215.823 202.373ZM258.522 196.25L257.672 199.127L257.688 199.131L257.705 199.136L258.522 196.25ZM275.289 204.966L273.353 207.257L273.364 207.267L273.376 207.276L275.289 204.966ZM286.737 218.97L284.085 220.373L284.088 220.379L284.092 220.385L286.737 218.97ZM291.861 254.701L288.925 254.086L288.922 254.099L288.92 254.111L291.861 254.701ZM285.082 271.449L282.536 269.862L282.534 269.866L285.082 271.449ZM271.531 285.159L269.864 282.666L269.857 282.67L269.85 282.675L271.531 285.159ZM260.536 271.607L258.941 269.066L258.93 269.073L258.92 269.08L260.536 271.607ZM269.166 263.257L266.664 261.602L266.661 261.607L269.166 263.257ZM273.776 252.122L270.843 251.492L270.839 251.51L270.835 251.528L273.776 252.122ZM270.178 227.035L267.513 228.412L267.527 228.438L267.54 228.463L270.178 227.035ZM262.643 217.77L260.735 220.086L260.754 220.101L260.772 220.116L262.643 217.77ZM252.05 212.436L252.813 209.535L252.05 212.436ZM226.583 216.089L228.13 218.659L226.583 216.089ZM217.79 224.203L215.335 222.478L215.322 222.497L215.308 222.517L217.79 224.203ZM213.162 235.212L210.229 234.582L210.222 234.61L210.217 234.638L213.162 235.212ZM216.759 260.299L214.095 261.677L214.113 261.712L214.132 261.747L216.759 260.299ZM224.313 269.69L222.341 271.95L222.374 271.979L222.409 272.008L224.313 269.69ZM235.069 275.259L234.252 278.146L235.069 275.259ZM271.502 312.003C266.422 312.732 262.021 312.704 258.253 311.996L257.146 317.893C261.706 318.749 266.79 318.74 272.354 317.942L271.502 312.003ZM258.215 311.989C254.838 311.4 252.08 309.828 249.839 307.207L245.28 311.107C248.424 314.784 252.427 317.07 257.184 317.9L258.215 311.989ZM249.817 307.182C247.675 304.734 246.019 300.728 245.163 294.76L239.224 295.611C240.161 302.144 242.082 307.453 245.302 311.133L249.817 307.182ZM245.163 294.76L243.273 281.582L237.334 282.434L239.224 295.611L245.163 294.76ZM240.73 284.978L257.455 282.579L256.603 276.64L239.878 279.039L240.73 284.978ZM254.059 280.036L256.112 294.353L262.052 293.501L259.998 279.184L254.059 280.036ZM256.112 294.353C256.565 297.51 257.857 300.265 260.365 302.028L263.815 297.119C263.063 296.591 262.35 295.582 262.052 293.501L256.112 294.353ZM260.361 302.025C262.84 303.774 265.784 304.273 268.907 303.825L268.055 297.886C266.109 298.165 264.793 297.809 263.819 297.122L260.361 302.025ZM268.907 303.825L283.351 301.753L282.499 295.814L268.055 297.886L268.907 303.825ZM279.955 299.21L282.009 313.527L287.948 312.675L285.895 298.358L279.955 299.21ZM284.552 310.132L271.502 312.003L272.354 317.942L285.404 316.071L284.552 310.132ZM250.202 289.713C242.187 290.863 235.176 290.423 229.099 288.512L227.299 294.235C234.402 296.469 242.344 296.902 251.054 295.652L250.202 289.713ZM229.114 288.517C222.966 286.547 217.716 283.623 213.318 279.768L209.363 284.28C214.431 288.722 220.42 292.032 227.283 294.231L229.114 288.517ZM213.361 279.806C208.933 275.773 205.41 271.313 202.766 266.428L197.49 269.285C200.475 274.799 204.428 279.785 209.32 284.242L213.361 279.806ZM202.792 266.477C200.182 261.436 198.56 256.532 197.876 251.757L191.936 252.609C192.729 258.139 194.589 263.684 197.464 269.236L202.792 266.477ZM197.876 251.757L197.476 248.97L191.537 249.821L191.936 252.609L197.876 251.757ZM197.476 248.97C196.716 243.673 196.907 238.263 198.067 232.722L192.194 231.493C190.898 237.684 190.673 243.799 191.537 249.821L197.476 248.97ZM198.07 232.708C199.207 227.14 201.365 221.951 204.557 217.123L199.552 213.814C195.943 219.272 193.485 225.175 192.191 231.507L198.07 232.708ZM204.54 217.148C207.773 212.366 212.048 208.285 217.418 204.914L214.228 199.832C208.209 203.611 203.306 208.261 199.569 213.788L204.54 217.148ZM217.447 204.895C222.695 201.516 229.202 199.218 237.062 198.091L236.21 192.151C227.683 193.374 220.315 195.911 214.198 199.851L217.447 204.895ZM237.062 198.091C244.833 196.976 251.682 197.357 257.672 199.127L259.372 193.373C252.399 191.312 244.657 190.94 236.21 192.151L237.062 198.091ZM257.705 199.136C263.801 200.861 268.999 203.577 273.353 207.257L277.226 202.674C272.162 198.394 266.182 195.299 259.339 193.363L257.705 199.136ZM273.376 207.276C277.873 210.999 281.435 215.361 284.085 220.373L289.389 217.568C286.361 211.842 282.291 206.867 277.202 202.655L273.376 207.276ZM284.092 220.385C286.762 225.376 288.466 230.515 289.225 235.812L295.164 234.96C294.301 228.938 292.366 223.133 289.382 217.555L284.092 220.385ZM289.225 235.812L289.625 238.599L295.564 237.747L295.164 234.96L289.225 235.812ZM289.625 238.599C290.307 243.357 290.092 248.512 288.925 254.086L294.798 255.315C296.086 249.158 296.36 243.294 295.564 237.747L289.625 238.599ZM288.92 254.111C287.841 259.499 285.725 264.747 282.536 269.862L287.628 273.036C291.167 267.358 293.571 261.44 294.803 255.29L288.92 254.111ZM282.534 269.866C279.491 274.765 275.289 279.037 269.864 282.666L273.199 287.653C279.258 283.6 284.091 278.731 287.631 273.031L282.534 269.866ZM269.85 282.675C264.643 286.198 258.129 288.576 250.202 289.713L251.054 295.652C259.682 294.415 267.104 291.778 273.213 287.644L269.85 282.675ZM248.655 278.928C253.742 278.198 258.265 276.621 262.153 274.134L258.92 269.08C255.859 271.037 252.177 272.361 247.803 272.988L248.655 278.928ZM262.131 274.147C266.034 271.697 269.228 268.617 271.672 264.907L266.661 261.607C264.715 264.561 262.156 267.047 258.941 269.066L262.131 274.147ZM271.669 264.912C274.147 261.164 275.833 257.092 276.717 252.715L270.835 251.528C270.106 255.141 268.719 258.493 266.664 261.602L271.669 264.912ZM276.709 252.752C277.665 248.3 277.803 243.742 277.137 239.097L271.198 239.949C271.767 243.919 271.644 247.761 270.843 251.492L276.709 252.752ZM277.137 239.097C276.427 234.142 274.998 229.633 272.816 225.606L267.54 228.463C269.345 231.795 270.576 235.612 271.198 239.949L277.137 239.097ZM272.843 225.657C270.749 221.607 267.972 218.184 264.513 215.425L260.772 220.116C263.543 222.326 265.79 225.079 267.513 228.412L272.843 225.657ZM264.55 215.455C261.165 212.666 257.237 210.698 252.813 209.535L251.288 215.338C254.926 216.294 258.06 217.882 260.735 220.086L264.55 215.455ZM252.813 209.535C248.348 208.361 243.601 208.16 238.609 208.876L239.461 214.816C243.759 214.199 247.69 214.392 251.288 215.338L252.813 209.535ZM238.609 208.876C233.539 209.603 228.996 211.134 225.035 213.518L228.13 218.659C231.311 216.743 235.069 215.445 239.461 214.816L238.609 208.876ZM225.035 213.518C221.124 215.874 217.878 218.861 215.335 222.478L220.244 225.928C222.284 223.026 224.9 220.603 228.13 218.659L225.035 213.518ZM215.308 222.517C212.87 226.105 211.183 230.137 210.229 234.582L216.095 235.841C216.898 232.103 218.296 228.796 220.271 225.889L215.308 222.517ZM210.217 234.638C209.351 239.087 209.292 243.79 210 248.725L215.939 247.873C215.315 243.517 215.384 239.495 216.106 235.785L210.217 234.638ZM210 248.725C210.663 253.349 212.025 257.673 214.095 261.677L219.424 258.921C217.677 255.541 216.512 251.865 215.939 247.873L210 248.725ZM214.132 261.747C216.28 265.645 219.019 269.051 222.341 271.95L226.285 267.429C223.498 264.997 221.201 262.143 219.387 258.851L214.132 261.747ZM222.409 272.008C225.868 274.849 229.826 276.893 234.252 278.146L235.886 272.373C232.224 271.336 229.013 269.668 226.217 267.371L222.409 272.008ZM234.252 278.146C238.751 279.419 243.566 279.657 248.655 278.928L247.803 272.988C243.432 273.615 239.473 273.388 235.886 272.373L234.252 278.146ZM319.182 274.576L317.159 276.791L317.169 276.801L317.18 276.81L319.182 274.576ZM303.652 212.277L303.226 209.307L300.257 209.733L300.683 212.703L303.652 212.277ZM321.264 209.751L324.234 209.325L323.808 206.356L320.838 206.782L321.264 209.751ZM332.207 260.811L330.327 263.149L330.347 263.164L330.367 263.18L332.207 260.811ZM351.683 257.759L349.282 255.961L349.268 255.98L349.253 256L351.683 257.759ZM348.252 205.881L347.826 202.911L344.856 203.337L345.282 206.307L348.252 205.881ZM365.864 203.355L368.833 202.929L368.408 199.96L365.438 200.386L365.864 203.355ZM375.749 272.282L376.175 275.252L379.144 274.826L378.718 271.856L375.749 272.282ZM361.811 274.281L358.842 274.707L359.268 277.676L362.237 277.25L361.811 274.281ZM357.614 245.012L357.188 242.043L354.218 242.468L354.644 245.438L357.614 245.012ZM359.008 244.812L361.977 244.386L361.551 241.417L358.582 241.843L359.008 244.812ZM358.836 262.552L355.91 261.891L358.836 262.552ZM352.362 274.213L354.364 276.448L352.362 274.213ZM338.381 276.809C331.161 277.844 325.556 276.257 321.183 272.341L317.18 276.81C323.094 282.108 330.573 283.99 339.233 282.748L338.381 276.809ZM321.204 272.36C316.866 268.399 313.774 261.722 312.346 251.763L306.407 252.615C307.934 263.266 311.379 271.513 317.159 276.791L321.204 272.36ZM312.346 251.763L306.622 211.851L300.683 212.703L306.407 252.615L312.346 251.763ZM304.078 215.247L321.69 212.721L320.838 206.782L303.226 209.307L304.078 215.247ZM318.294 210.177L324.236 251.609L330.176 250.758L324.234 209.325L318.294 210.177ZM324.236 251.609C324.925 256.412 326.883 260.378 330.327 263.149L334.088 258.473C332.075 256.854 330.698 254.402 330.176 250.758L324.236 251.609ZM330.367 263.18C333.847 265.884 338.095 266.747 342.79 266.074L341.938 260.135C338.523 260.624 336 259.959 334.048 258.442L330.367 263.18ZM342.79 266.074C347.549 265.391 351.422 263.236 354.114 259.518L349.253 256C347.627 258.246 345.288 259.654 341.938 260.135L342.79 266.074ZM354.084 259.558C356.901 255.798 357.784 251.216 357.054 246.127L351.115 246.979C351.67 250.844 350.952 253.732 349.282 255.961L354.084 259.558ZM357.054 246.127L351.222 205.455L345.282 206.307L351.115 246.979L357.054 246.127ZM348.678 208.851L366.29 206.325L365.438 200.386L347.826 202.911L348.678 208.851ZM362.894 203.781L372.779 272.708L378.718 271.856L368.833 202.929L362.894 203.781ZM375.323 269.312L361.386 271.311L362.237 277.25L376.175 275.252L375.323 269.312ZM364.781 273.855L360.584 244.586L354.644 245.438L358.842 274.707L364.781 273.855ZM358.04 247.982L359.434 247.782L358.582 241.843L357.188 242.043L358.04 247.982ZM356.038 245.238C356.998 251.934 356.912 257.458 355.91 261.891L361.762 263.214C362.976 257.847 363.004 251.543 361.977 244.386L356.038 245.238ZM355.91 261.891C354.916 266.288 353.031 269.587 350.361 271.979L354.364 276.448C358.11 273.093 360.541 268.617 361.762 263.214L355.91 261.891ZM350.361 271.979C347.691 274.37 344.022 276 339.141 276.7L339.993 282.639C345.755 281.812 350.616 279.805 354.364 276.448L350.361 271.979ZM339.141 276.7L338.381 276.809L339.233 282.748L339.993 282.639L339.141 276.7ZM399.274 268.908L396.304 269.334L396.73 272.304L399.7 271.878L399.274 268.908ZM389.407 200.108L388.981 197.138L386.012 197.564L386.438 200.534L389.407 200.108ZM407.019 197.582L409.989 197.156L409.563 194.187L406.593 194.613L407.019 197.582ZM416.886 266.382L417.312 269.352L420.281 268.926L419.856 265.956L416.886 266.382ZM381.668 214.666L378.698 215.092L379.124 218.062L382.093 217.636L381.668 214.666ZM379.778 201.489L379.352 198.519L376.382 198.945L376.808 201.915L379.778 201.489ZM407.019 197.582L409.989 197.156L409.563 194.187L406.593 194.613L407.019 197.582ZM408.909 210.759L409.335 213.729L412.304 213.303L411.878 210.334L408.909 210.759ZM386.578 189.393L384.608 191.657L384.663 191.704L384.721 191.75L386.578 189.393ZM384.597 175.583L382.153 173.843L382.131 173.874L382.109 173.906L384.597 175.583ZM399.928 173.384L398.012 175.692L399.928 173.384ZM401.909 187.195L404.396 188.871L404.416 188.842L404.435 188.813L401.909 187.195ZM402.244 268.482L392.377 199.682L386.438 200.534L396.304 269.334L402.244 268.482ZM389.833 203.078L407.445 200.552L406.593 194.613L388.981 197.138L389.833 203.078ZM404.049 198.008L413.916 266.808L419.856 265.956L409.989 197.156L404.049 198.008ZM416.46 263.413L398.848 265.938L399.7 271.878L417.312 269.352L416.46 263.413ZM384.637 214.24L382.747 201.063L376.808 201.915L378.698 215.092L384.637 214.24ZM380.204 204.459L407.445 200.552L406.593 194.613L379.352 198.519L380.204 204.459ZM404.049 198.008L405.939 211.185L411.878 210.334L409.989 197.156L404.049 198.008ZM408.483 207.79L381.242 211.697L382.093 217.636L409.335 213.729L408.483 207.79ZM394.262 187.976C391.269 188.405 389.504 187.88 388.434 187.037L384.721 191.75C387.539 193.97 391.181 194.479 395.114 193.915L394.262 187.976ZM388.547 187.13C387.275 186.023 386.455 184.538 386.159 182.471L380.219 183.322C380.698 186.661 382.138 189.507 384.608 191.657L388.547 187.13ZM386.159 182.471C385.83 180.179 386.23 178.527 387.085 177.259L382.109 173.906C380.263 176.646 379.724 179.87 380.219 183.322L386.159 182.471ZM387.041 177.322C387.831 176.212 389.377 175.212 392.37 174.783L391.518 168.844C387.585 169.408 384.233 170.92 382.153 173.843L387.041 177.322ZM392.37 174.783C395.377 174.352 397.052 174.895 398.012 175.692L401.844 171.076C399.085 168.785 395.438 168.282 391.518 168.844L392.37 174.783ZM398.012 175.692C399.188 176.669 400.037 178.142 400.365 180.433L406.304 179.581C405.809 176.129 404.386 173.186 401.844 171.076L398.012 175.692ZM400.365 180.433C400.662 182.501 400.293 184.156 399.383 185.576L404.435 188.813C406.202 186.056 406.783 182.92 406.304 179.581L400.365 180.433ZM399.421 185.518C398.724 186.552 397.269 187.545 394.262 187.976L395.114 193.915C399.034 193.353 402.392 191.845 404.396 188.871L399.421 185.518ZM432.749 264.107L429.779 264.533L430.205 267.503L433.175 267.077L432.749 264.107ZM430.75 250.17L428.195 248.598L427.626 249.522L427.78 250.596L430.75 250.17ZM458.855 204.502L461.825 204.076L460.648 195.866L456.3 202.929L458.855 204.502ZM459.146 206.529L457.026 208.651L463.393 215.012L462.116 206.103L459.146 206.529ZM455.976 203.363L456.856 200.494L453.856 205.485L455.976 203.363ZM458.276 204.067L458.702 207.037L459.155 201.199L458.276 204.067ZM424.699 208.883L421.73 209.309L422.156 212.278L425.125 211.852L424.699 208.883ZM422.755 195.326L422.329 192.356L419.36 192.782L419.785 195.751L422.755 195.326ZM475.21 187.803L478.18 187.377L477.754 184.407L474.785 184.833L475.21 187.803ZM477.209 201.74L479.764 203.312L480.333 202.388L480.179 201.314L477.209 201.74ZM449.104 247.409L446.134 247.834L447.311 256.044L451.659 248.981L449.104 247.409ZM448.831 245.508L450.903 243.338L444.63 237.348L445.861 245.934L448.831 245.508ZM452.127 248.656L451.114 251.48L454.199 246.486L452.127 248.656ZM449.81 247.824L449.384 244.855L448.797 250.648L449.81 247.824ZM484.527 242.846L487.496 242.42L487.07 239.45L484.101 239.876L484.527 242.846ZM486.471 256.403L486.897 259.373L489.866 258.947L489.441 255.977L486.471 256.403ZM435.718 263.682L433.719 249.744L427.78 250.596L429.779 264.533L435.718 263.682ZM433.305 251.742L461.41 206.074L456.3 202.929L428.195 248.598L433.305 251.742ZM455.886 204.927L456.176 206.955L462.116 206.103L461.825 204.076L455.886 204.927ZM461.266 204.406L458.097 201.24L453.856 205.485L457.026 208.651L461.266 204.406ZM455.097 206.231L457.397 206.936L459.155 201.199L456.856 200.494L455.097 206.231ZM457.85 201.098L424.273 205.913L425.125 211.852L458.702 207.037L457.85 201.098ZM427.669 208.457L425.725 194.9L419.785 195.751L421.73 209.309L427.669 208.457ZM423.181 198.295L475.636 190.772L474.785 184.833L422.329 192.356L423.181 198.295ZM472.241 188.229L474.24 202.166L480.179 201.314L478.18 187.377L472.241 188.229ZM474.654 200.168L446.549 245.836L451.659 248.981L479.764 203.312L474.654 200.168ZM452.073 246.983L451.801 245.082L445.861 245.934L446.134 247.834L452.073 246.983ZM446.759 247.678L450.055 250.825L454.199 246.486L450.903 243.338L446.759 247.678ZM453.14 245.832L450.823 245.001L448.797 250.648L451.114 251.48L453.14 245.832ZM450.236 250.794L484.953 245.815L484.101 239.876L449.384 244.855L450.236 250.794ZM481.557 243.272L483.501 256.829L489.441 255.977L487.496 242.42L481.557 243.272ZM486.045 253.433L432.323 261.138L433.175 267.077L486.897 259.373L486.045 253.433Z" fill="#1926B2" mask="url(#path-1-outside-1_66_108)"/>
</g>
<path d="M18.6103 159.697L18.6102 159.697C8.94798 120.707 31.7813 80.4756 70.2067 68.7636C111.19 56.2736 154.187 80.0105 165.63 121.047C171.375 141.647 168.048 162.629 158.062 179.744C150.08 193.427 147.656 209.627 151.902 224.855L154.652 234.714C155.183 236.62 154.068 238.597 152.16 239.129L91.8163 255.956C89.9072 256.489 87.9326 255.372 87.4012 253.467L84.7548 243.976C80.4843 228.661 70.0969 215.831 56.1127 208.235L56.1127 208.235C38.063 198.428 23.9828 181.366 18.6103 159.697Z" fill="#FFD849" stroke="#1926B2" stroke-width="2"/>
<path d="M134.893 293.83C128.007 295.75 121.277 295.894 115.945 294.526C110.643 293.166 106.516 290.239 105.294 285.857C104.248 282.107 105.58 278.162 108.377 274.668C111.103 271.264 115.294 268.181 120.393 265.91C120.786 264.768 121.557 263.973 122.497 263.398C123.526 262.767 124.796 262.377 126.027 262.034C127.259 261.69 128.547 261.367 129.754 261.374C130.856 261.38 131.927 261.661 132.855 262.435C138.393 261.74 143.574 262.209 147.668 263.712C151.87 265.254 155.052 267.941 156.097 271.69C157.319 276.072 155.303 280.712 151.469 284.62C147.614 288.55 141.78 291.909 134.893 293.83Z" fill="#6F9AA7" stroke="#1926B2" stroke-width="2"/>
<path d="M101.019 287.725L160.719 271.078L151.564 238.246L91.8635 254.894L101.019 287.725Z" fill="#6F9AA7" stroke="#1926B2"/>
<mask id="mask0_66_108" style="mask-type:luminance" maskUnits="userSpaceOnUse" x="90" y="238" width="76" height="59">
<path d="M164.812 273.576L164.475 272.369C163.653 269.418 160.594 267.694 157.644 268.516L102.343 283.937C99.3925 284.76 97.6678 287.818 98.4905 290.769L98.8273 291.976C99.65 294.927 102.709 296.651 105.659 295.829L160.96 280.408C163.91 279.585 165.635 276.527 164.812 273.576ZM160.676 258.744L160.339 257.536C159.517 254.586 156.457 252.859 153.507 253.681L98.2061 269.102C95.2558 269.925 93.5317 272.986 94.3544 275.936L94.6912 277.144C95.5139 280.094 98.5725 281.819 101.523 280.996L156.824 265.575C159.774 264.753 161.499 261.694 160.676 258.744ZM152.688 250.743L97.3867 266.163C94.4364 266.986 91.3778 265.261 90.5544 262.309L90.2183 261.103C89.395 258.151 91.1197 255.092 94.0701 254.269L149.371 238.849C152.321 238.026 155.38 239.751 156.203 242.703L156.539 243.909C157.363 246.862 155.638 249.92 152.688 250.743Z" fill="white"/>
</mask>
<g mask="url(#mask0_66_108)">
<path d="M164.801 273.588L164.464 272.38C163.641 269.43 160.583 267.705 157.633 268.528L102.332 283.948C99.3813 284.771 97.6566 287.829 98.4793 290.78L98.816 291.988C99.6387 294.938 102.697 296.663 105.648 295.84L160.949 280.419C163.899 279.597 165.624 276.538 164.801 273.588ZM160.665 258.755L160.328 257.547C159.505 254.597 156.446 252.87 153.496 253.693L98.1949 269.113C95.2446 269.936 93.5205 272.997 94.3432 275.947L94.6799 277.155C95.5027 280.105 98.5613 281.83 101.512 281.007L129.162 273.297L156.812 265.587C159.763 264.764 161.488 261.705 160.665 258.755ZM152.676 250.754L97.3755 266.175C94.4252 266.997 91.3666 265.273 90.5432 262.32L90.2071 261.115C89.3837 258.162 91.1085 255.103 94.0588 254.281L149.36 238.86C152.31 238.037 155.369 239.762 156.192 242.715L156.528 243.92C157.351 246.873 155.627 249.931 152.676 250.754Z" fill="#9CD9EB"/>
<path d="M117.185 296.771L101.383 301.177L88.177 253.819L103.98 249.413L117.185 296.771Z" fill="#D1EEF6"/>
<path d="M167.366 282.778L152.809 286.837L139.603 239.48L154.16 235.42L167.366 282.778Z" fill="#8EC5D6"/>
</g>
<mask id="path-10-inside-2_66_108" fill="white">
<path fill-rule="evenodd" clip-rule="evenodd" d="M164.471 272.375L164.808 273.583C165.631 276.533 163.906 279.592 160.956 280.415L105.655 295.835C102.705 296.658 99.6459 294.933 98.8232 291.983L98.4865 290.775C97.6638 287.825 99.3885 284.766 102.339 283.943L157.64 268.523C160.59 267.7 163.649 269.425 164.471 272.375ZM160.335 257.543L160.672 258.75C161.495 261.701 159.77 264.759 156.82 265.582L129.169 273.292L101.519 281.003C101.334 281.054 101.15 281.095 100.965 281.127C98.1949 281.605 95.4584 279.916 94.6871 277.15L94.3504 275.942C93.5277 272.992 95.2518 269.931 98.2021 269.108L153.503 253.688C156.453 252.865 159.513 254.592 160.335 257.543ZM90.9594 263.362C92.1367 265.659 94.8012 266.89 97.3827 266.17L152.684 250.749C155.634 249.927 157.359 246.868 156.535 243.915L156.199 242.71C155.594 240.538 153.778 239.03 151.686 238.712C151.112 238.625 150.517 238.628 149.921 238.73C149.736 238.762 149.551 238.804 149.367 238.855L94.066 254.276C91.813 254.904 90.2747 256.836 90.04 259.029C89.9866 259.529 90.0008 260.041 90.0894 260.555C90.1213 260.74 90.1628 260.925 90.2143 261.11L90.5504 262.315C90.6533 262.684 90.7912 263.034 90.9594 263.362Z"/>
</mask>
<path fill-rule="evenodd" clip-rule="evenodd" d="M164.471 272.375L164.808 273.583C165.631 276.533 163.906 279.592 160.956 280.415L105.655 295.835C102.705 296.658 99.6459 294.933 98.8232 291.983L98.4865 290.775C97.6638 287.825 99.3885 284.766 102.339 283.943L157.64 268.523C160.59 267.7 163.649 269.425 164.471 272.375ZM160.335 257.543L160.672 258.75C161.495 261.701 159.77 264.759 156.82 265.582L129.169 273.292L101.519 281.003C101.334 281.054 101.15 281.095 100.965 281.127C98.1949 281.605 95.4584 279.916 94.6871 277.15L94.3504 275.942C93.5277 272.992 95.2518 269.931 98.2021 269.108L153.503 253.688C156.453 252.865 159.513 254.592 160.335 257.543ZM90.9594 263.362C92.1367 265.659 94.8012 266.89 97.3827 266.17L152.684 250.749C155.634 249.927 157.359 246.868 156.535 243.915L156.199 242.71C155.594 240.538 153.778 239.03 151.686 238.712C151.112 238.625 150.517 238.628 149.921 238.73C149.736 238.762 149.551 238.804 149.367 238.855L94.066 254.276C91.813 254.904 90.2747 256.836 90.04 259.029C89.9866 259.529 90.0008 260.041 90.0894 260.555C90.1213 260.74 90.1628 260.925 90.2143 261.11L90.5504 262.315C90.6533 262.684 90.7912 263.034 90.9594 263.362Z" fill="#9CD9EB"/>
<path d="M164.808 273.583L163.845 273.851L164.808 273.583ZM164.471 272.375L165.435 272.107L164.471 272.375ZM160.956 280.415L161.224 281.378L160.956 280.415ZM105.655 295.835L105.923 296.798H105.923L105.655 295.835ZM98.8232 291.983L99.7865 291.714L98.8232 291.983ZM98.4865 290.775L97.5232 291.044H97.5232L98.4865 290.775ZM102.339 283.943L102.607 284.907H102.607L102.339 283.943ZM157.64 268.523L157.371 267.56L157.64 268.523ZM160.672 258.75L159.709 259.019L160.672 258.75ZM160.335 257.543L161.299 257.274V257.274L160.335 257.543ZM156.82 265.582L157.088 266.545L156.82 265.582ZM129.169 273.292L129.438 274.256L129.169 273.292ZM101.519 281.003L101.787 281.966H101.787L101.519 281.003ZM100.965 281.127L101.135 282.113H101.135L100.965 281.127ZM94.6871 277.15L93.7239 277.419L94.6871 277.15ZM94.3504 275.942L95.3136 275.674L94.3504 275.942ZM98.2021 269.108L97.9335 268.145H97.9335L98.2021 269.108ZM153.503 253.688L153.772 254.651L153.503 253.688ZM97.3827 266.17L97.1141 265.207H97.1141L97.3827 266.17ZM90.9594 263.362L91.8493 262.906H91.8493L90.9594 263.362ZM152.684 250.749L152.415 249.786L152.684 250.749ZM156.535 243.915L155.572 244.184V244.184L156.535 243.915ZM156.199 242.71L157.162 242.441L156.199 242.71ZM151.686 238.712L151.837 237.724V237.724L151.686 238.712ZM149.921 238.73L149.751 237.745V237.745L149.921 238.73ZM149.367 238.855L149.098 237.892L149.098 237.892L149.367 238.855ZM94.066 254.276L94.3346 255.239L94.066 254.276ZM90.04 259.029L91.0344 259.136L90.04 259.029ZM90.0894 260.555L89.104 260.725L90.0894 260.555ZM90.2143 261.11L91.1775 260.841H91.1775L90.2143 261.11ZM90.5504 262.315L91.5137 262.047H91.5137L90.5504 262.315ZM165.771 273.314L165.435 272.107L163.508 272.644L163.845 273.851L165.771 273.314ZM161.224 281.378C164.707 280.407 166.742 276.797 165.771 273.314L163.845 273.851C164.519 276.27 163.105 278.777 160.687 279.451L161.224 281.378ZM105.923 296.798L161.224 281.378L160.687 279.451L105.386 294.872L105.923 296.798ZM97.86 292.251C98.831 295.734 102.441 297.77 105.923 296.798L105.386 294.872C102.968 295.546 100.461 294.133 99.7865 291.714L97.86 292.251ZM97.5232 291.044L97.86 292.251L99.7865 291.714L99.4497 290.506L97.5232 291.044ZM102.07 282.98C98.5879 283.951 96.5522 287.561 97.5232 291.044L99.4497 290.506C98.7753 288.088 100.189 285.581 102.607 284.907L102.07 282.98ZM157.371 267.56L102.07 282.98L102.607 284.907L157.908 269.486L157.371 267.56ZM165.435 272.107C164.464 268.624 160.853 266.588 157.371 267.56L157.908 269.486C160.327 268.812 162.834 270.225 163.508 272.644L165.435 272.107ZM161.635 258.482L161.299 257.274L159.372 257.811L159.709 259.019L161.635 258.482ZM157.088 266.545C160.571 265.574 162.606 261.964 161.635 258.482L159.709 259.019C160.383 261.437 158.969 263.944 156.551 264.619L157.088 266.545ZM129.438 274.256L157.088 266.545L156.551 264.619L128.901 272.329L129.438 274.256ZM101.787 281.966L129.438 274.256L128.901 272.329L101.25 280.039L101.787 281.966ZM101.135 282.113C101.353 282.075 101.57 282.026 101.787 281.966L101.25 280.039C101.098 280.082 100.946 280.116 100.795 280.142L101.135 282.113ZM93.7239 277.419C94.6344 280.684 97.8642 282.677 101.135 282.113L100.795 280.142C98.5255 280.533 96.2825 279.148 95.6504 276.882L93.7239 277.419ZM93.3871 276.211L93.7239 277.419L95.6504 276.882L95.3136 275.674L93.3871 276.211ZM97.9335 268.145C94.4506 269.116 92.4162 272.729 93.3871 276.211L95.3136 275.674C94.6391 273.255 96.0529 270.746 98.4707 270.072L97.9335 268.145ZM153.234 252.725L97.9335 268.145L98.4707 270.072L153.772 254.651L153.234 252.725ZM161.299 257.274C160.328 253.792 156.717 251.753 153.234 252.725L153.772 254.651C156.189 253.977 158.698 255.392 159.372 257.811L161.299 257.274ZM97.1141 265.207C94.9993 265.796 92.8143 264.789 91.8493 262.906L90.0695 263.818C91.4591 266.53 94.603 267.983 97.6513 267.133L97.1141 265.207ZM152.415 249.786L97.1141 265.207L97.6513 267.133L152.952 251.713L152.415 249.786ZM155.572 244.184C156.247 246.605 154.833 249.112 152.415 249.786L152.952 251.713C156.435 250.741 158.47 247.131 157.499 243.647L155.572 244.184ZM155.236 242.978L155.572 244.184L157.499 243.647L157.162 242.441L155.236 242.978ZM151.536 239.701C153.253 239.962 154.74 241.199 155.236 242.978L157.162 242.441C156.447 239.877 154.304 238.099 151.837 237.724L151.536 239.701ZM150.091 239.716C150.58 239.632 151.066 239.63 151.536 239.701L151.837 237.724C151.158 237.621 150.455 237.624 149.751 237.745L150.091 239.716ZM149.635 239.818C149.787 239.776 149.939 239.742 150.091 239.716L149.751 237.745C149.533 237.782 149.315 237.831 149.098 237.892L149.635 239.818ZM94.3346 255.239L149.635 239.818L149.098 237.892L93.7974 253.313L94.3346 255.239ZM91.0344 259.136C91.2269 257.336 92.4894 255.754 94.3346 255.239L93.7974 253.313C91.1365 254.055 89.3224 256.336 89.0457 258.923L91.0344 259.136ZM91.0749 260.386C91.0022 259.964 90.9907 259.544 91.0344 259.136L89.0457 258.923C88.9826 259.513 88.9994 260.119 89.104 260.725L91.0749 260.386ZM91.1775 260.841C91.1352 260.689 91.101 260.537 91.0749 260.386L89.104 260.725C89.1416 260.943 89.1905 261.161 89.251 261.378L91.1775 260.841ZM91.5137 262.047L91.1775 260.841L89.251 261.378L89.5872 262.584L91.5137 262.047ZM91.8493 262.906C91.7116 262.638 91.5984 262.35 91.5137 262.047L89.5872 262.584C89.7083 263.018 89.8707 263.431 90.0695 263.818L91.8493 262.906Z" fill="#1926B2" mask="url(#path-10-inside-2_66_108)"/>
<path d="M98.623 141.874C89.9618 167.747 66.0913 183.081 45.303 176.123C24.5154 169.167 14.6823 142.551 23.3411 116.679C31.9993 90.8045 55.8721 75.4692 76.6604 82.4274C97.451 89.3848 107.281 116 98.623 141.874ZM70.4983 69.7201C32.5813 81.2772 10.0466 120.983 19.5809 159.457C24.8829 180.841 38.7764 197.678 56.5901 207.356C70.8066 215.079 81.3731 228.126 85.718 243.707L88.3645 253.198C88.7477 254.572 90.1712 255.377 91.5477 254.993L151.891 238.166C153.268 237.782 154.072 236.356 153.688 234.982L150.939 225.123C146.616 209.62 149.088 193.142 157.198 179.24C167.054 162.348 170.336 141.645 164.667 121.316C153.374 80.8188 110.943 57.3943 70.4983 69.7201Z" fill="#FFCE1C"/>
<path d="M130.224 146.388C125.146 181.959 96.3388 207.275 65.8828 202.925C35.4269 198.576 14.8547 166.214 19.932 130.641C25.0116 95.0668 53.8196 69.7538 84.2749 74.1008C114.731 78.4502 135.304 110.814 130.224 146.388ZM70.4983 69.7202C32.5813 81.2772 10.0466 120.983 19.5809 159.457C24.8829 180.841 38.7764 197.678 56.5901 207.356C70.8066 215.079 81.3731 228.126 85.718 243.707L88.3645 253.198C88.7477 254.572 90.1712 255.377 91.5477 254.993L151.891 238.166C153.268 237.782 154.072 236.356 153.688 234.982L150.939 225.123C146.616 209.62 149.088 193.142 157.198 179.24C167.054 162.348 170.336 141.645 164.667 121.316C153.374 80.8188 110.943 57.3943 70.4983 69.7202Z" fill="#E8BB19"/>
<path d="M68.3091 175.43C66.596 168.707 70.5737 161.792 77.2899 159.919C80.9439 158.9 84.6812 159.567 87.6518 161.473C86.8898 162.369 86.1011 163.235 85.2954 164.067C83.2113 162.906 80.6852 162.539 78.2127 163.229C73.4674 164.552 70.5886 169.316 71.5246 174.069C70.4633 174.573 69.3904 175.026 68.3091 175.43Z" fill="#656ECB"/>
<path d="M98.5633 196.15L95.1205 185.798L85.2709 188.544C78.4597 190.443 71.3756 186.449 69.477 179.64L68.3818 175.712C68.3553 175.617 68.3318 175.524 68.3083 175.431C69.3897 175.027 70.4626 174.574 71.5239 174.07C71.5705 174.311 71.6266 174.549 71.6935 174.789L72.7887 178.716C74.1782 183.699 79.3627 186.625 84.3481 185.235L94.036 182.533L89.6355 169.307C88.864 166.99 87.2777 165.17 85.2946 164.068C86.1004 163.236 86.889 162.37 87.6511 161.474C90.0373 163.002 91.9319 165.33 92.895 168.224L97.3477 181.61L108.949 178.375L105.833 164.616C104.32 157.94 108.3 151.273 114.893 149.434C120.173 147.962 125.616 150.034 128.681 154.214C128.272 155.845 127.811 157.447 127.302 159.021C125.816 154.186 120.718 151.377 115.815 152.744C110.992 154.089 108.076 158.971 109.182 163.856L112.264 177.451L119.655 175.389C118.691 176.911 117.675 178.386 116.61 179.805L113.025 180.805L113.634 183.497C112.717 184.555 111.772 185.574 110.801 186.56L109.708 181.73L98.4346 184.873L101.557 194.26C100.576 194.923 99.576 195.555 98.5633 196.15Z" fill="#1926B2"/>
<path d="M127.553 244.943L125.587 245.491L124.223 245.8L110.802 186.562C111.773 185.576 112.718 184.557 113.635 183.499L127.553 244.943ZM117.844 247.65L115.878 248.199L98.564 196.152C99.5767 195.557 100.576 194.925 101.557 194.262L119.169 247.209L117.844 247.65ZM122.875 178.061L116.611 179.807C117.675 178.388 118.691 176.913 119.656 175.392L121.952 174.751C126.935 173.362 129.86 168.175 128.471 163.192L127.375 159.264C127.353 159.184 127.328 159.103 127.303 159.023C127.812 157.449 128.273 155.847 128.681 154.216C129.57 155.427 130.256 156.814 130.682 158.342L131.778 162.27C133.676 169.079 129.682 176.163 122.875 178.061Z" fill="#121B7E"/>
<path d="M60.4992 97.5325C58.4738 102.389 54.418 105.321 51.4431 104.08C48.47 102.837 47.7013 97.8932 49.7267 93.0366C51.7521 88.18 55.8085 85.2502 58.781 86.4916C61.7576 87.7294 62.5246 92.6759 60.4992 97.5325Z" fill="white"/>
<path d="M51.9254 120.606C50.936 122.975 48.3461 124.154 46.1452 123.235C43.9413 122.315 42.9568 119.648 43.9479 117.276C44.9349 114.907 47.5248 113.729 49.7287 114.649C51.9296 115.567 52.9142 118.234 51.9254 120.606Z" fill="white"/>
<path d="M513.555 246C514.073 246.535 514.073 246.535 514.602 247.08C514.774 251.714 514.947 256.348 515.125 261.123C515.643 265.579 516.162 270.035 516.696 274.626C517.56 277.477 518.423 280.329 519.313 283.267C520.35 284.871 521.387 286.476 522.455 288.128C523.491 289.02 524.528 289.911 525.596 290.829C526.978 291.542 528.36 292.255 529.784 292.989C532.894 293.702 536.004 294.415 539.208 295.15C548.796 295.952 548.796 295.952 558.578 296.77C558.578 296.948 558.578 297.127 558.578 297.31C552.359 297.578 552.359 297.578 546.013 297.85C542.04 298.385 538.066 298.92 533.972 299.471C531.554 300.362 529.135 301.253 526.643 302.171C525.088 303.419 523.533 304.666 521.931 305.952C521.067 307.378 520.203 308.804 519.313 310.273C518.45 313.124 517.586 315.976 516.696 318.914C516.35 321.41 516.005 323.905 515.649 326.476C515.303 333.249 514.958 340.022 514.602 347C514.256 347 513.911 347 513.555 347C513.295 340.049 513.295 340.049 513.031 332.957C512.513 328.323 511.994 323.689 511.46 318.914C510.597 316.063 509.733 313.211 508.843 310.273C507.633 308.49 506.424 306.708 505.178 304.872C503.623 303.802 502.068 302.733 500.466 301.631C498.393 300.918 496.32 300.205 494.184 299.471C492.111 299.114 490.038 298.758 487.902 298.39C481.855 298.034 475.808 297.677 469.578 297.31C469.578 297.132 469.578 296.954 469.578 296.77C470.96 296.592 472.342 296.414 473.766 296.23C478.604 295.873 483.441 295.517 488.425 295.15C491.189 294.615 493.954 294.08 496.802 293.529C499.22 292.282 501.639 291.034 504.131 289.749C505.945 287.61 505.945 287.61 507.796 285.428C508.66 283.289 509.523 281.15 510.413 278.947C510.932 276.451 511.45 273.956 511.984 271.385C512.33 267.642 512.675 263.899 513.031 260.043C513.204 255.409 513.377 250.775 513.555 246Z" fill="#FFCE1C" stroke="#1926B2" stroke-width="1.7"/>
<path d="M543.26 3C543.575 3.32294 543.575 3.32294 543.896 3.65241C544.001 6.45123 544.105 9.25005 544.213 12.1337C544.528 14.8249 544.842 17.516 545.166 20.2888C545.69 22.0111 546.215 23.7335 546.755 25.508C547.384 26.4768 548.012 27.4457 548.66 28.4438C549.289 28.9821 549.918 29.5203 550.566 30.0749C551.405 30.5055 552.244 30.936 553.108 31.3797C554.994 31.8103 556.881 32.2409 558.825 32.6845C564.643 33.1689 564.643 33.1689 570.578 33.6631C570.578 33.7707 570.578 33.8784 570.578 33.9893C566.804 34.1508 566.804 34.1508 562.955 34.3155C560.544 34.6384 558.133 34.9614 555.649 35.2941C554.181 35.8324 552.714 36.3706 551.202 36.9251C550.258 37.6787 549.315 38.4322 548.343 39.2086C547.819 40.0697 547.295 40.9309 546.755 41.8182C546.23 43.5405 545.706 45.2629 545.166 47.0374C544.957 48.5445 544.747 50.0515 544.531 51.6043C544.321 55.6949 544.112 59.7855 543.896 64C543.686 64 543.476 64 543.26 64C543.103 59.8018 543.103 59.8018 542.943 55.5187C542.628 52.7199 542.314 49.9211 541.99 47.0374C541.466 45.3151 540.942 43.5927 540.402 41.8182C539.668 40.7417 538.934 39.6652 538.178 38.5561C537.235 37.9103 536.291 37.2644 535.319 36.5989C534.061 36.1683 532.804 35.7378 531.508 35.2941C530.25 35.0788 528.992 34.8635 527.696 34.6417C524.027 34.4264 520.358 34.2111 516.578 33.9893C516.578 33.8817 516.578 33.774 516.578 33.6631C517.417 33.5555 518.255 33.4478 519.119 33.3369C522.054 33.1216 524.989 32.9063 528.013 32.6845C529.691 32.3615 531.368 32.0386 533.096 31.7059C534.563 30.9524 536.031 30.1988 537.543 29.4225C538.643 28.1307 538.643 28.1307 539.766 26.8128C540.29 25.5211 540.815 24.2293 541.355 22.8984C541.669 21.3913 541.984 19.8843 542.308 18.3316C542.517 16.071 542.727 13.8104 542.943 11.4813C543.048 8.68246 543.152 5.88364 543.26 3Z" fill="#FFCE1C" stroke="#1926B2" stroke-width="1.7"/>
<defs>
<filter id="filter0_d_66_108" x="167.507" y="33.2661" width="383.937" height="295.701" filterUnits="userSpaceOnUse" color-interpolation-filters="sRGB">
<feFlood flood-opacity="0" result="BackgroundImageFix"/>
<feColorMatrix in="SourceAlpha" type="matrix" values="0 0 0 0 0 0 0 0 0 0 0 0 0 0 0 0 0 0 127 0" result="hardAlpha"/>
<feOffset dx="4" dy="4"/>
<feComposite in2="hardAlpha" operator="out"/>
<feColorMatrix type="matrix" values="0 0 0 0 0.0980392 0 0 0 0 0.14902 0 0 0 0 0.698039 0 0 0 1 0"/>
<feBlend mode="normal" in2="BackgroundImageFix" result="effect1_dropShadow_66_108"/>
<feBlend mode="normal" in="SourceGraphic" in2="effect1_dropShadow_66_108" result="shape"/>
</filter>
</defs>
</svg>
