<svg width="758" height="194" viewBox="0 0 758 194" fill="none" xmlns="http://www.w3.org/2000/svg">
<g filter="url(#filter0_d_65_79)">
<mask id="path-1-outside-1_65_79" maskUnits="userSpaceOnUse" x="-4" y="-3" width="753" height="188" fill="black">
<rect fill="white" x="-4" y="-3" width="753" height="188"/>
<path d="M18.16 73L0.304 2.92H14.416L28.912 63.88L25.168 61.672H34.768L30.544 63.88L41.968 5.608H53.68L39.472 73H18.16ZM60.016 73L44.56 5.608H56.752L69.904 63.88L65.776 61.672H75.184L71.536 63.88L84.304 2.92H97.648L81.712 73H60.016ZM108.546 73V2.92H121.89V73H108.546ZM119.97 73V61.48H151.746V73H119.97ZM119.97 43.144V31.624H149.25V43.144H119.97ZM119.97 14.44V2.92H150.978V14.44H119.97ZM165.734 73V2.92H179.366V73H165.734ZM177.446 73V61H207.686V73H177.446ZM249.068 74.824C242.732 74.824 237.292 73.704 232.748 71.464C228.204 69.224 224.492 66.312 221.612 62.728C218.796 59.144 216.716 55.24 215.372 51.016C214.028 46.792 213.356 42.728 213.356 38.824V36.712C213.356 32.36 214.028 28.072 215.372 23.848C216.78 19.624 218.924 15.784 221.804 12.328C224.684 8.87199 228.332 6.11999 232.748 4.07199C237.228 1.95999 242.508 0.903995 248.588 0.903995C254.924 0.903995 260.428 2.056 265.1 4.36C269.836 6.6 273.612 9.8 276.428 13.96C279.244 18.056 280.94 22.856 281.516 28.36H267.788C267.276 25.16 266.124 22.472 264.332 20.296C262.604 18.056 260.396 16.392 257.708 15.304C255.02 14.152 251.98 13.576 248.588 13.576C245.132 13.576 242.06 14.184 239.372 15.4C236.684 16.552 234.444 18.216 232.652 20.392C230.86 22.568 229.484 25.128 228.524 28.072C227.628 31.016 227.18 34.28 227.18 37.864C227.18 41.32 227.628 44.52 228.524 47.464C229.484 50.408 230.892 53 232.748 55.24C234.604 57.416 236.876 59.112 239.564 60.328C242.316 61.544 245.484 62.152 249.068 62.152C254.316 62.152 258.732 60.872 262.316 58.312C265.964 55.688 268.172 52.04 268.94 47.368H282.668C282.028 52.36 280.332 56.936 277.58 61.096C274.828 65.256 271.052 68.584 266.252 71.08C261.452 73.576 255.724 74.824 249.068 74.824ZM327.099 74.824C320.763 74.824 315.259 73.704 310.587 71.464C305.979 69.224 302.139 66.312 299.067 62.728C296.059 59.08 293.787 55.176 292.251 51.016C290.779 46.792 290.043 42.728 290.043 38.824V36.712C290.043 32.424 290.811 28.168 292.347 23.944C293.883 19.656 296.187 15.784 299.259 12.328C302.395 8.87199 306.267 6.11999 310.875 4.07199C315.483 1.95999 320.891 0.903995 327.099 0.903995C333.243 0.903995 338.619 1.95999 343.227 4.07199C347.835 6.11999 351.675 8.87199 354.747 12.328C357.883 15.784 360.219 19.656 361.755 23.944C363.291 28.168 364.059 32.424 364.059 36.712V38.824C364.059 42.728 363.291 46.792 361.755 51.016C360.283 55.176 358.011 59.08 354.939 62.728C351.931 66.312 348.091 69.224 343.419 71.464C338.811 73.704 333.371 74.824 327.099 74.824ZM327.099 62.152C330.683 62.152 333.883 61.512 336.699 60.232C339.579 58.952 342.011 57.192 343.995 54.952C346.043 52.648 347.579 50.056 348.603 47.176C349.691 44.232 350.235 41.128 350.235 37.864C350.235 34.344 349.691 31.112 348.603 28.168C347.579 25.224 346.043 22.664 343.995 20.488C342.011 18.312 339.579 16.616 336.699 15.4C333.819 14.184 330.619 13.576 327.099 13.576C323.515 13.576 320.283 14.184 317.403 15.4C314.523 16.616 312.059 18.312 310.011 20.488C308.027 22.664 306.491 25.224 305.403 28.168C304.379 31.112 303.867 34.344 303.867 37.864C303.867 41.128 304.379 44.232 305.403 47.176C306.491 50.056 308.027 52.648 310.011 54.952C312.059 57.192 314.523 58.952 317.403 60.232C320.283 61.512 323.515 62.152 327.099 62.152ZM377.234 73V2.92H395.858L413.426 44.776H415.154L432.626 2.92H451.538V73H438.002V13.192L439.73 13.384L420.818 58.696H406.898L387.89 13.384L389.714 13.192V73H377.234ZM468.827 73V2.92H482.171V73H468.827ZM480.251 73V61.48H512.027V73H480.251ZM480.251 43.144V31.624H509.531V43.144H480.251ZM480.251 14.44V2.92H511.259V14.44H480.251ZM560.558 73V13H574.19V73H560.558ZM540.302 14.92V2.92H594.446V14.92H540.302ZM636.193 74.824C629.857 74.824 624.353 73.704 619.681 71.464C615.073 69.224 611.233 66.312 608.161 62.728C605.153 59.08 602.881 55.176 601.345 51.016C599.873 46.792 599.137 42.728 599.137 38.824V36.712C599.137 32.424 599.905 28.168 601.441 23.944C602.977 19.656 605.281 15.784 608.353 12.328C611.489 8.87199 615.361 6.11999 619.969 4.07199C624.577 1.95999 629.985 0.903995 636.193 0.903995C642.337 0.903995 647.713 1.95999 652.321 4.07199C656.929 6.11999 660.769 8.87199 663.841 12.328C666.977 15.784 669.313 19.656 670.849 23.944C672.385 28.168 673.153 32.424 673.153 36.712V38.824C673.153 42.728 672.385 46.792 670.849 51.016C669.377 55.176 667.105 59.08 664.033 62.728C661.025 66.312 657.185 69.224 652.513 71.464C647.905 73.704 642.465 74.824 636.193 74.824ZM636.193 62.152C639.777 62.152 642.977 61.512 645.793 60.232C648.673 58.952 651.105 57.192 653.089 54.952C655.137 52.648 656.673 50.056 657.697 47.176C658.785 44.232 659.329 41.128 659.329 37.864C659.329 34.344 658.785 31.112 657.697 28.168C656.673 25.224 655.137 22.664 653.089 20.488C651.105 18.312 648.673 16.616 645.793 15.4C642.913 14.184 639.713 13.576 636.193 13.576C632.609 13.576 629.377 14.184 626.497 15.4C623.617 16.616 621.153 18.312 619.105 20.488C617.121 22.664 615.585 25.224 614.497 28.168C613.473 31.112 612.961 34.344 612.961 37.864C612.961 41.128 613.473 44.232 614.497 47.176C615.585 50.056 617.121 52.648 619.105 54.952C621.153 57.192 623.617 58.952 626.497 60.232C629.377 61.512 632.609 62.152 636.193 62.152ZM18.352 158.496V146.688H31.984C34.736 146.688 37.04 146.144 38.896 145.056C40.816 143.968 42.256 142.464 43.216 140.544C44.24 138.624 44.752 136.416 44.752 133.92C44.752 131.424 44.24 129.216 43.216 127.296C42.256 125.376 40.816 123.904 38.896 122.88C37.04 121.792 34.736 121.248 31.984 121.248H18.352V109.44H30.832C36.72 109.44 41.712 110.4 45.808 112.32C49.968 114.24 53.136 116.992 55.312 120.576C57.488 124.096 58.576 128.288 58.576 133.152V134.688C58.576 139.552 57.488 143.776 55.312 147.36C53.136 150.88 49.968 153.632 45.808 155.616C41.712 157.536 36.72 158.496 30.832 158.496H18.352ZM6.64 180V109.44H20.272V180H6.64ZM57.853 180L81.757 109.92H104.029L128.605 180H114.589L93.757 119.232L98.653 121.344H86.653L91.645 119.232L71.485 180H57.853ZM74.557 161.376L78.877 149.856H107.293L111.517 161.376H74.557ZM146.267 153.216L125.147 109.92H139.163L155.291 143.808L152.219 142.848H161.339L158.075 143.808L172.763 109.92H186.011L166.523 153.216H146.267ZM149.723 180V151.104H163.067V180H149.723ZM207.446 180.384V167.712H221.942C225.59 167.712 228.822 167.168 231.638 166.08C234.518 164.928 236.95 163.328 238.934 161.28C240.918 159.232 242.422 156.832 243.446 154.08C244.534 151.264 245.078 148.16 245.078 144.768C245.078 141.248 244.534 138.112 243.446 135.36C242.422 132.544 240.918 130.144 238.934 128.16C236.95 126.176 234.518 124.672 231.638 123.648C228.822 122.624 225.59 122.112 221.942 122.112H207.446V109.44H221.078C227.414 109.44 232.95 110.368 237.686 112.224C242.422 114.08 246.358 116.64 249.494 119.904C252.63 123.104 254.966 126.784 256.502 130.944C258.102 135.04 258.902 139.296 258.902 143.712V145.824C258.902 150.048 258.102 154.208 256.502 158.304C254.966 162.4 252.63 166.112 249.494 169.44C246.358 172.768 242.422 175.424 237.686 177.408C232.95 179.392 227.414 180.384 221.078 180.384H207.446ZM195.734 180.384V109.44H209.366V180.384H195.734ZM271.301 180V109.92H284.933V180H271.301ZM295.509 180L319.413 109.92H341.685L366.261 180H352.245L331.413 119.232L336.309 121.344H324.309L329.301 119.232L309.141 180H295.509ZM312.213 161.376L316.533 149.856H344.949L349.173 161.376H312.213ZM408.814 180.48V169.536H426.382C429.582 169.536 432.014 168.672 433.678 166.944C435.342 165.152 436.174 162.72 436.174 159.648C436.174 156.576 435.342 154.208 433.678 152.544C432.014 150.816 429.582 149.952 426.382 149.952H408.814V141.6H425.422C430.094 141.6 434.254 142.176 437.902 143.328C441.614 144.416 444.494 146.272 446.542 148.896C448.654 151.52 449.71 155.04 449.71 159.456V160.8C449.71 164.96 448.782 168.512 446.926 171.456C445.134 174.336 442.414 176.576 438.766 178.176C435.182 179.712 430.734 180.48 425.422 180.48H408.814ZM397.39 180.48V109.44H410.734V180.48H397.39ZM408.814 147.744V139.392H423.79C427.054 139.392 429.454 138.528 430.99 136.8C432.526 135.072 433.294 132.768 433.294 129.888C433.294 127.008 432.526 124.704 430.99 122.976C429.454 121.248 427.054 120.384 423.79 120.384H408.814V109.44H422.542C430.478 109.44 436.494 111.104 440.59 114.432C444.75 117.76 446.83 122.528 446.83 128.736V130.08C446.83 134.432 445.774 137.92 443.662 140.544C441.614 143.104 438.766 144.96 435.118 146.112C431.47 147.2 427.278 147.744 422.542 147.744H408.814ZM496.037 181.824C489.701 181.824 484.197 180.704 479.525 178.464C474.917 176.224 471.077 173.312 468.005 169.728C464.997 166.08 462.725 162.176 461.189 158.016C459.717 153.792 458.981 149.728 458.981 145.824V143.712C458.981 139.424 459.749 135.168 461.285 130.944C462.821 126.656 465.125 122.784 468.197 119.328C471.333 115.872 475.205 113.12 479.813 111.072C484.421 108.96 489.829 107.904 496.037 107.904C502.181 107.904 507.557 108.96 512.165 111.072C516.773 113.12 520.613 115.872 523.685 119.328C526.821 122.784 529.157 126.656 530.693 130.944C532.229 135.168 532.997 139.424 532.997 143.712V145.824C532.997 149.728 532.229 153.792 530.693 158.016C529.221 162.176 526.949 166.08 523.877 169.728C520.869 173.312 517.029 176.224 512.357 178.464C507.749 180.704 502.309 181.824 496.037 181.824ZM496.037 169.152C499.621 169.152 502.821 168.512 505.637 167.232C508.517 165.952 510.949 164.192 512.933 161.952C514.981 159.648 516.517 157.056 517.541 154.176C518.629 151.232 519.173 148.128 519.173 144.864C519.173 141.344 518.629 138.112 517.541 135.168C516.517 132.224 514.981 129.664 512.933 127.488C510.949 125.312 508.517 123.616 505.637 122.4C502.757 121.184 499.557 120.576 496.037 120.576C492.453 120.576 489.221 121.184 486.341 122.4C483.461 123.616 480.997 125.312 478.949 127.488C476.965 129.664 475.429 132.224 474.341 135.168C473.317 138.112 472.805 141.344 472.805 144.864C472.805 148.128 473.317 151.232 474.341 154.176C475.429 157.056 476.965 159.648 478.949 161.952C480.997 164.192 483.461 165.952 486.341 167.232C489.221 168.512 492.453 169.152 496.037 169.152ZM579.099 181.824C572.763 181.824 567.259 180.704 562.587 178.464C557.979 176.224 554.139 173.312 551.067 169.728C548.059 166.08 545.787 162.176 544.251 158.016C542.779 153.792 542.043 149.728 542.043 145.824V143.712C542.043 139.424 542.811 135.168 544.347 130.944C545.883 126.656 548.187 122.784 551.259 119.328C554.395 115.872 558.267 113.12 562.875 111.072C567.483 108.96 572.891 107.904 579.099 107.904C585.243 107.904 590.619 108.96 595.227 111.072C599.835 113.12 603.675 115.872 606.747 119.328C609.883 122.784 612.219 126.656 613.755 130.944C615.291 135.168 616.059 139.424 616.059 143.712V145.824C616.059 149.728 615.291 153.792 613.755 158.016C612.283 162.176 610.011 166.08 606.939 169.728C603.931 173.312 600.091 176.224 595.419 178.464C590.811 180.704 585.371 181.824 579.099 181.824ZM579.099 169.152C582.683 169.152 585.883 168.512 588.699 167.232C591.579 165.952 594.011 164.192 595.995 161.952C598.043 159.648 599.579 157.056 600.603 154.176C601.691 151.232 602.235 148.128 602.235 144.864C602.235 141.344 601.691 138.112 600.603 135.168C599.579 132.224 598.043 129.664 595.995 127.488C594.011 125.312 591.579 123.616 588.699 122.4C585.819 121.184 582.619 120.576 579.099 120.576C575.515 120.576 572.283 121.184 569.403 122.4C566.523 123.616 564.059 125.312 562.011 127.488C560.027 129.664 558.491 132.224 557.403 135.168C556.379 138.112 555.867 141.344 555.867 144.864C555.867 148.128 556.379 151.232 557.403 154.176C558.491 157.056 560.027 159.648 562.011 161.952C564.059 164.192 566.523 165.952 569.403 167.232C572.283 168.512 575.515 169.152 579.099 169.152ZM640.995 180V120H654.627V180H640.995ZM620.739 121.92V109.92H674.883V121.92H620.739ZM731.749 180V109.92H745.381V180H731.749ZM685.765 180V109.92H699.397V180H685.765ZM696.901 150.912V138.912H734.245V150.912H696.901Z"/>
</mask>
<path d="M18.16 73L0.304 2.92H14.416L28.912 63.88L25.168 61.672H34.768L30.544 63.88L41.968 5.608H53.68L39.472 73H18.16ZM60.016 73L44.56 5.608H56.752L69.904 63.88L65.776 61.672H75.184L71.536 63.88L84.304 2.92H97.648L81.712 73H60.016ZM108.546 73V2.92H121.89V73H108.546ZM119.97 73V61.48H151.746V73H119.97ZM119.97 43.144V31.624H149.25V43.144H119.97ZM119.97 14.44V2.92H150.978V14.44H119.97ZM165.734 73V2.92H179.366V73H165.734ZM177.446 73V61H207.686V73H177.446ZM249.068 74.824C242.732 74.824 237.292 73.704 232.748 71.464C228.204 69.224 224.492 66.312 221.612 62.728C218.796 59.144 216.716 55.24 215.372 51.016C214.028 46.792 213.356 42.728 213.356 38.824V36.712C213.356 32.36 214.028 28.072 215.372 23.848C216.78 19.624 218.924 15.784 221.804 12.328C224.684 8.87199 228.332 6.11999 232.748 4.07199C237.228 1.95999 242.508 0.903995 248.588 0.903995C254.924 0.903995 260.428 2.056 265.1 4.36C269.836 6.6 273.612 9.8 276.428 13.96C279.244 18.056 280.94 22.856 281.516 28.36H267.788C267.276 25.16 266.124 22.472 264.332 20.296C262.604 18.056 260.396 16.392 257.708 15.304C255.02 14.152 251.98 13.576 248.588 13.576C245.132 13.576 242.06 14.184 239.372 15.4C236.684 16.552 234.444 18.216 232.652 20.392C230.86 22.568 229.484 25.128 228.524 28.072C227.628 31.016 227.18 34.28 227.18 37.864C227.18 41.32 227.628 44.52 228.524 47.464C229.484 50.408 230.892 53 232.748 55.24C234.604 57.416 236.876 59.112 239.564 60.328C242.316 61.544 245.484 62.152 249.068 62.152C254.316 62.152 258.732 60.872 262.316 58.312C265.964 55.688 268.172 52.04 268.94 47.368H282.668C282.028 52.36 280.332 56.936 277.58 61.096C274.828 65.256 271.052 68.584 266.252 71.08C261.452 73.576 255.724 74.824 249.068 74.824ZM327.099 74.824C320.763 74.824 315.259 73.704 310.587 71.464C305.979 69.224 302.139 66.312 299.067 62.728C296.059 59.08 293.787 55.176 292.251 51.016C290.779 46.792 290.043 42.728 290.043 38.824V36.712C290.043 32.424 290.811 28.168 292.347 23.944C293.883 19.656 296.187 15.784 299.259 12.328C302.395 8.87199 306.267 6.11999 310.875 4.07199C315.483 1.95999 320.891 0.903995 327.099 0.903995C333.243 0.903995 338.619 1.95999 343.227 4.07199C347.835 6.11999 351.675 8.87199 354.747 12.328C357.883 15.784 360.219 19.656 361.755 23.944C363.291 28.168 364.059 32.424 364.059 36.712V38.824C364.059 42.728 363.291 46.792 361.755 51.016C360.283 55.176 358.011 59.08 354.939 62.728C351.931 66.312 348.091 69.224 343.419 71.464C338.811 73.704 333.371 74.824 327.099 74.824ZM327.099 62.152C330.683 62.152 333.883 61.512 336.699 60.232C339.579 58.952 342.011 57.192 343.995 54.952C346.043 52.648 347.579 50.056 348.603 47.176C349.691 44.232 350.235 41.128 350.235 37.864C350.235 34.344 349.691 31.112 348.603 28.168C347.579 25.224 346.043 22.664 343.995 20.488C342.011 18.312 339.579 16.616 336.699 15.4C333.819 14.184 330.619 13.576 327.099 13.576C323.515 13.576 320.283 14.184 317.403 15.4C314.523 16.616 312.059 18.312 310.011 20.488C308.027 22.664 306.491 25.224 305.403 28.168C304.379 31.112 303.867 34.344 303.867 37.864C303.867 41.128 304.379 44.232 305.403 47.176C306.491 50.056 308.027 52.648 310.011 54.952C312.059 57.192 314.523 58.952 317.403 60.232C320.283 61.512 323.515 62.152 327.099 62.152ZM377.234 73V2.92H395.858L413.426 44.776H415.154L432.626 2.92H451.538V73H438.002V13.192L439.73 13.384L420.818 58.696H406.898L387.89 13.384L389.714 13.192V73H377.234ZM468.827 73V2.92H482.171V73H468.827ZM480.251 73V61.48H512.027V73H480.251ZM480.251 43.144V31.624H509.531V43.144H480.251ZM480.251 14.44V2.92H511.259V14.44H480.251ZM560.558 73V13H574.19V73H560.558ZM540.302 14.92V2.92H594.446V14.92H540.302ZM636.193 74.824C629.857 74.824 624.353 73.704 619.681 71.464C615.073 69.224 611.233 66.312 608.161 62.728C605.153 59.08 602.881 55.176 601.345 51.016C599.873 46.792 599.137 42.728 599.137 38.824V36.712C599.137 32.424 599.905 28.168 601.441 23.944C602.977 19.656 605.281 15.784 608.353 12.328C611.489 8.87199 615.361 6.11999 619.969 4.07199C624.577 1.95999 629.985 0.903995 636.193 0.903995C642.337 0.903995 647.713 1.95999 652.321 4.07199C656.929 6.11999 660.769 8.87199 663.841 12.328C666.977 15.784 669.313 19.656 670.849 23.944C672.385 28.168 673.153 32.424 673.153 36.712V38.824C673.153 42.728 672.385 46.792 670.849 51.016C669.377 55.176 667.105 59.08 664.033 62.728C661.025 66.312 657.185 69.224 652.513 71.464C647.905 73.704 642.465 74.824 636.193 74.824ZM636.193 62.152C639.777 62.152 642.977 61.512 645.793 60.232C648.673 58.952 651.105 57.192 653.089 54.952C655.137 52.648 656.673 50.056 657.697 47.176C658.785 44.232 659.329 41.128 659.329 37.864C659.329 34.344 658.785 31.112 657.697 28.168C656.673 25.224 655.137 22.664 653.089 20.488C651.105 18.312 648.673 16.616 645.793 15.4C642.913 14.184 639.713 13.576 636.193 13.576C632.609 13.576 629.377 14.184 626.497 15.4C623.617 16.616 621.153 18.312 619.105 20.488C617.121 22.664 615.585 25.224 614.497 28.168C613.473 31.112 612.961 34.344 612.961 37.864C612.961 41.128 613.473 44.232 614.497 47.176C615.585 50.056 617.121 52.648 619.105 54.952C621.153 57.192 623.617 58.952 626.497 60.232C629.377 61.512 632.609 62.152 636.193 62.152ZM18.352 158.496V146.688H31.984C34.736 146.688 37.04 146.144 38.896 145.056C40.816 143.968 42.256 142.464 43.216 140.544C44.24 138.624 44.752 136.416 44.752 133.92C44.752 131.424 44.24 129.216 43.216 127.296C42.256 125.376 40.816 123.904 38.896 122.88C37.04 121.792 34.736 121.248 31.984 121.248H18.352V109.44H30.832C36.72 109.44 41.712 110.4 45.808 112.32C49.968 114.24 53.136 116.992 55.312 120.576C57.488 124.096 58.576 128.288 58.576 133.152V134.688C58.576 139.552 57.488 143.776 55.312 147.36C53.136 150.88 49.968 153.632 45.808 155.616C41.712 157.536 36.72 158.496 30.832 158.496H18.352ZM6.64 180V109.44H20.272V180H6.64ZM57.853 180L81.757 109.92H104.029L128.605 180H114.589L93.757 119.232L98.653 121.344H86.653L91.645 119.232L71.485 180H57.853ZM74.557 161.376L78.877 149.856H107.293L111.517 161.376H74.557ZM146.267 153.216L125.147 109.92H139.163L155.291 143.808L152.219 142.848H161.339L158.075 143.808L172.763 109.92H186.011L166.523 153.216H146.267ZM149.723 180V151.104H163.067V180H149.723ZM207.446 180.384V167.712H221.942C225.59 167.712 228.822 167.168 231.638 166.08C234.518 164.928 236.95 163.328 238.934 161.28C240.918 159.232 242.422 156.832 243.446 154.08C244.534 151.264 245.078 148.16 245.078 144.768C245.078 141.248 244.534 138.112 243.446 135.36C242.422 132.544 240.918 130.144 238.934 128.16C236.95 126.176 234.518 124.672 231.638 123.648C228.822 122.624 225.59 122.112 221.942 122.112H207.446V109.44H221.078C227.414 109.44 232.95 110.368 237.686 112.224C242.422 114.08 246.358 116.64 249.494 119.904C252.63 123.104 254.966 126.784 256.502 130.944C258.102 135.04 258.902 139.296 258.902 143.712V145.824C258.902 150.048 258.102 154.208 256.502 158.304C254.966 162.4 252.63 166.112 249.494 169.44C246.358 172.768 242.422 175.424 237.686 177.408C232.95 179.392 227.414 180.384 221.078 180.384H207.446ZM195.734 180.384V109.44H209.366V180.384H195.734ZM271.301 180V109.92H284.933V180H271.301ZM295.509 180L319.413 109.92H341.685L366.261 180H352.245L331.413 119.232L336.309 121.344H324.309L329.301 119.232L309.141 180H295.509ZM312.213 161.376L316.533 149.856H344.949L349.173 161.376H312.213ZM408.814 180.48V169.536H426.382C429.582 169.536 432.014 168.672 433.678 166.944C435.342 165.152 436.174 162.72 436.174 159.648C436.174 156.576 435.342 154.208 433.678 152.544C432.014 150.816 429.582 149.952 426.382 149.952H408.814V141.6H425.422C430.094 141.6 434.254 142.176 437.902 143.328C441.614 144.416 444.494 146.272 446.542 148.896C448.654 151.52 449.71 155.04 449.71 159.456V160.8C449.71 164.96 448.782 168.512 446.926 171.456C445.134 174.336 442.414 176.576 438.766 178.176C435.182 179.712 430.734 180.48 425.422 180.48H408.814ZM397.39 180.48V109.44H410.734V180.48H397.39ZM408.814 147.744V139.392H423.79C427.054 139.392 429.454 138.528 430.99 136.8C432.526 135.072 433.294 132.768 433.294 129.888C433.294 127.008 432.526 124.704 430.99 122.976C429.454 121.248 427.054 120.384 423.79 120.384H408.814V109.44H422.542C430.478 109.44 436.494 111.104 440.59 114.432C444.75 117.76 446.83 122.528 446.83 128.736V130.08C446.83 134.432 445.774 137.92 443.662 140.544C441.614 143.104 438.766 144.96 435.118 146.112C431.47 147.2 427.278 147.744 422.542 147.744H408.814ZM496.037 181.824C489.701 181.824 484.197 180.704 479.525 178.464C474.917 176.224 471.077 173.312 468.005 169.728C464.997 166.08 462.725 162.176 461.189 158.016C459.717 153.792 458.981 149.728 458.981 145.824V143.712C458.981 139.424 459.749 135.168 461.285 130.944C462.821 126.656 465.125 122.784 468.197 119.328C471.333 115.872 475.205 113.12 479.813 111.072C484.421 108.96 489.829 107.904 496.037 107.904C502.181 107.904 507.557 108.96 512.165 111.072C516.773 113.12 520.613 115.872 523.685 119.328C526.821 122.784 529.157 126.656 530.693 130.944C532.229 135.168 532.997 139.424 532.997 143.712V145.824C532.997 149.728 532.229 153.792 530.693 158.016C529.221 162.176 526.949 166.08 523.877 169.728C520.869 173.312 517.029 176.224 512.357 178.464C507.749 180.704 502.309 181.824 496.037 181.824ZM496.037 169.152C499.621 169.152 502.821 168.512 505.637 167.232C508.517 165.952 510.949 164.192 512.933 161.952C514.981 159.648 516.517 157.056 517.541 154.176C518.629 151.232 519.173 148.128 519.173 144.864C519.173 141.344 518.629 138.112 517.541 135.168C516.517 132.224 514.981 129.664 512.933 127.488C510.949 125.312 508.517 123.616 505.637 122.4C502.757 121.184 499.557 120.576 496.037 120.576C492.453 120.576 489.221 121.184 486.341 122.4C483.461 123.616 480.997 125.312 478.949 127.488C476.965 129.664 475.429 132.224 474.341 135.168C473.317 138.112 472.805 141.344 472.805 144.864C472.805 148.128 473.317 151.232 474.341 154.176C475.429 157.056 476.965 159.648 478.949 161.952C480.997 164.192 483.461 165.952 486.341 167.232C489.221 168.512 492.453 169.152 496.037 169.152ZM579.099 181.824C572.763 181.824 567.259 180.704 562.587 178.464C557.979 176.224 554.139 173.312 551.067 169.728C548.059 166.08 545.787 162.176 544.251 158.016C542.779 153.792 542.043 149.728 542.043 145.824V143.712C542.043 139.424 542.811 135.168 544.347 130.944C545.883 126.656 548.187 122.784 551.259 119.328C554.395 115.872 558.267 113.12 562.875 111.072C567.483 108.96 572.891 107.904 579.099 107.904C585.243 107.904 590.619 108.96 595.227 111.072C599.835 113.12 603.675 115.872 606.747 119.328C609.883 122.784 612.219 126.656 613.755 130.944C615.291 135.168 616.059 139.424 616.059 143.712V145.824C616.059 149.728 615.291 153.792 613.755 158.016C612.283 162.176 610.011 166.08 606.939 169.728C603.931 173.312 600.091 176.224 595.419 178.464C590.811 180.704 585.371 181.824 579.099 181.824ZM579.099 169.152C582.683 169.152 585.883 168.512 588.699 167.232C591.579 165.952 594.011 164.192 595.995 161.952C598.043 159.648 599.579 157.056 600.603 154.176C601.691 151.232 602.235 148.128 602.235 144.864C602.235 141.344 601.691 138.112 600.603 135.168C599.579 132.224 598.043 129.664 595.995 127.488C594.011 125.312 591.579 123.616 588.699 122.4C585.819 121.184 582.619 120.576 579.099 120.576C575.515 120.576 572.283 121.184 569.403 122.4C566.523 123.616 564.059 125.312 562.011 127.488C560.027 129.664 558.491 132.224 557.403 135.168C556.379 138.112 555.867 141.344 555.867 144.864C555.867 148.128 556.379 151.232 557.403 154.176C558.491 157.056 560.027 159.648 562.011 161.952C564.059 164.192 566.523 165.952 569.403 167.232C572.283 168.512 575.515 169.152 579.099 169.152ZM640.995 180V120H654.627V180H640.995ZM620.739 121.92V109.92H674.883V121.92H620.739ZM731.749 180V109.92H745.381V180H731.749ZM685.765 180V109.92H699.397V180H685.765ZM696.901 150.912V138.912H734.245V150.912H696.901Z" fill="url(#paint0_linear_65_79)"/>
<path d="M18.16 73L15.2529 73.7407L15.8285 76H18.16V73ZM0.304 2.92V-0.0800026H-3.55623L-2.60312 3.66071L0.304 2.92ZM14.416 2.92L17.3346 2.22596L16.7863 -0.0800026H14.416V2.92ZM28.912 63.88L27.388 66.4641L33.4619 70.0461L31.8306 63.186L28.912 63.88ZM25.168 61.672V58.672H14.1754L23.644 64.2561L25.168 61.672ZM34.768 61.672L36.1578 64.3307L34.768 58.672V61.672ZM30.544 63.88L27.6 63.3028L26.3984 69.4321L31.9338 66.5387L30.544 63.88ZM41.968 5.608V2.608H39.499L39.024 5.03084L41.968 5.608ZM53.68 5.608L56.6155 6.22687L57.3784 2.608H53.68V5.608ZM39.472 73V76H41.9055L42.4075 73.6189L39.472 73ZM60.016 73L57.0919 73.6706L57.6261 76H60.016V73ZM44.56 5.608V2.608H40.7941L41.6359 6.27862L44.56 5.608ZM56.752 5.608L59.6784 4.94751L59.1504 2.608H56.752V5.608ZM69.904 63.88L68.489 66.5253L74.275 69.6202L72.8304 63.2195L69.904 63.88ZM65.776 61.672V58.672L64.361 64.3173L65.776 61.672ZM75.184 61.672L76.7374 64.2385L85.9342 58.672H75.184V61.672ZM71.536 63.88L68.5997 63.265L67.1848 70.0203L73.0894 66.4465L71.536 63.88ZM84.304 2.92V-0.0800026H81.8673L81.3677 2.305L84.304 2.92ZM97.648 2.92L100.573 3.58521L101.407 -0.0800026H97.648V2.92ZM81.712 73V76H84.1064L84.6373 73.6652L81.712 73ZM21.0671 72.2593L3.21112 2.17928L-2.60312 3.66071L15.2529 73.7407L21.0671 72.2593ZM0.304 5.92H14.416V-0.0800026H0.304V5.92ZM11.4974 3.61403L25.9934 64.574L31.8306 63.186L17.3346 2.22596L11.4974 3.61403ZM30.436 61.2959L26.692 59.0879L23.644 64.2561L27.388 66.4641L30.436 61.2959ZM25.168 64.672H34.768V58.672H25.168V64.672ZM33.3782 59.0133L29.1542 61.2213L31.9338 66.5387L36.1578 64.3307L33.3782 59.0133ZM33.488 64.4571L44.912 6.18515L39.024 5.03084L27.6 63.3028L33.488 64.4571ZM41.968 8.608H53.68V2.608H41.968V8.608ZM50.7445 4.98912L36.5365 72.3811L42.4075 73.6189L56.6155 6.22687L50.7445 4.98912ZM39.472 70H18.16V76H39.472V70ZM62.9401 72.3294L47.4841 4.93737L41.6359 6.27862L57.0919 73.6706L62.9401 72.3294ZM44.56 8.608H56.752V2.608H44.56V8.608ZM53.8256 6.26848L66.9776 64.5405L72.8304 63.2195L59.6784 4.94751L53.8256 6.26848ZM71.319 61.2346L67.191 59.0266L64.361 64.3173L68.489 66.5253L71.319 61.2346ZM65.776 64.672H75.184V58.672H65.776V64.672ZM73.6306 59.1055L69.9826 61.3135L73.0894 66.4465L76.7374 64.2385L73.6306 59.1055ZM74.4723 64.495L87.2403 3.535L81.3677 2.305L68.5997 63.265L74.4723 64.495ZM84.304 5.92H97.648V-0.0800026H84.304V5.92ZM94.7227 2.25479L78.7867 72.3348L84.6373 73.6652L100.573 3.58521L94.7227 2.25479ZM81.712 70H60.016V76H81.712V70ZM108.546 73H105.546V76H108.546V73ZM108.546 2.92V-0.0800026H105.546V2.92H108.546ZM121.89 2.92H124.89V-0.0800026H121.89V2.92ZM121.89 73V76H124.89V73H121.89ZM119.97 73H116.97V76H119.97V73ZM119.97 61.48V58.48H116.97V61.48H119.97ZM151.746 61.48H154.746V58.48H151.746V61.48ZM151.746 73V76H154.746V73H151.746ZM119.97 43.144H116.97V46.144H119.97V43.144ZM119.97 31.624V28.624H116.97V31.624H119.97ZM149.25 31.624H152.25V28.624H149.25V31.624ZM149.25 43.144V46.144H152.25V43.144H149.25ZM119.97 14.44H116.97V17.44H119.97V14.44ZM119.97 2.92V-0.0800026H116.97V2.92H119.97ZM150.978 2.92H153.978V-0.0800026H150.978V2.92ZM150.978 14.44V17.44H153.978V14.44H150.978ZM111.546 73V2.92H105.546V73H111.546ZM108.546 5.92H121.89V-0.0800026H108.546V5.92ZM118.89 2.92V73H124.89V2.92H118.89ZM121.89 70H108.546V76H121.89V70ZM122.97 73V61.48H116.97V73H122.97ZM119.97 64.48H151.746V58.48H119.97V64.48ZM148.746 61.48V73H154.746V61.48H148.746ZM151.746 70H119.97V76H151.746V70ZM122.97 43.144V31.624H116.97V43.144H122.97ZM119.97 34.624H149.25V28.624H119.97V34.624ZM146.25 31.624V43.144H152.25V31.624H146.25ZM149.25 40.144H119.97V46.144H149.25V40.144ZM122.97 14.44V2.92H116.97V14.44H122.97ZM119.97 5.92H150.978V-0.0800026H119.97V5.92ZM147.978 2.92V14.44H153.978V2.92H147.978ZM150.978 11.44H119.97V17.44H150.978V11.44ZM165.734 73H162.734V76H165.734V73ZM165.734 2.92V-0.0800026H162.734V2.92H165.734ZM179.366 2.92H182.366V-0.0800026H179.366V2.92ZM179.366 73V76H182.366V73H179.366ZM177.446 73H174.446V76H177.446V73ZM177.446 61V58H174.446V61H177.446ZM207.686 61H210.686V58H207.686V61ZM207.686 73V76H210.686V73H207.686ZM168.734 73V2.92H162.734V73H168.734ZM165.734 5.92H179.366V-0.0800026H165.734V5.92ZM176.366 2.92V73H182.366V2.92H176.366ZM179.366 70H165.734V76H179.366V70ZM180.446 73V61H174.446V73H180.446ZM177.446 64H207.686V58H177.446V64ZM204.686 61V73H210.686V61H204.686ZM207.686 70H177.446V76H207.686V70ZM221.612 62.728L219.253 64.5815L219.263 64.5944L219.273 64.6072L221.612 62.728ZM215.372 51.016L218.231 50.1064L215.372 51.016ZM215.372 23.848L212.526 22.8993L212.519 22.9188L212.513 22.9384L215.372 23.848ZM232.748 4.07199L234.01 6.79356L234.018 6.78959L234.027 6.78557L232.748 4.07199ZM265.1 4.36L263.773 7.05061L263.795 7.06146L263.817 7.07196L265.1 4.36ZM276.428 13.96L273.943 15.6417L273.949 15.6507L273.956 15.6596L276.428 13.96ZM281.516 28.36V31.36H284.846L284.499 28.0477L281.516 28.36ZM267.788 28.36L264.825 28.834L265.23 31.36H267.788V28.36ZM264.332 20.296L261.956 22.1284L261.986 22.1662L262.016 22.2031L264.332 20.296ZM257.708 15.304L256.526 18.0614L256.554 18.0734L256.582 18.0848L257.708 15.304ZM239.372 15.4L240.553 18.1574L240.581 18.1456L240.608 18.1333L239.372 15.4ZM232.652 20.392L230.336 18.4849L230.336 18.4849L232.652 20.392ZM228.524 28.072L225.672 27.1419L225.662 27.1701L225.654 27.1985L228.524 28.072ZM228.524 47.464L225.654 48.3375L225.662 48.3659L225.672 48.3941L228.524 47.464ZM232.748 55.24L230.438 57.154L230.451 57.1705L230.465 57.1868L232.748 55.24ZM239.564 60.328L238.327 63.0613L238.339 63.0667L238.351 63.0721L239.564 60.328ZM262.316 58.312L264.059 60.7532L264.068 60.7474L262.316 58.312ZM268.94 47.368V44.368H266.393L265.979 46.8814L268.94 47.368ZM282.668 47.368L285.643 47.7495L286.077 44.368H282.668V47.368ZM277.58 61.096L275.078 59.4408V59.4408L277.58 61.096ZM266.252 71.08L267.636 73.7416L266.252 71.08ZM249.068 71.824C243.079 71.824 238.115 70.7653 234.074 68.7732L231.421 74.1548C236.468 76.6427 242.384 77.824 249.068 77.824V71.824ZM234.074 68.7732C229.882 66.7068 226.529 64.0583 223.95 60.8488L219.273 64.6072C222.454 68.5657 226.525 71.7412 231.421 74.1548L234.074 68.7732ZM223.971 60.8745C221.37 57.5646 219.463 53.9787 218.231 50.1064L212.513 51.9256C213.969 56.5013 216.221 60.7234 219.253 64.5815L223.971 60.8745ZM218.231 50.1064C216.968 46.1373 216.356 42.3807 216.356 38.824H210.356C210.356 43.0752 211.088 47.4467 212.513 51.9256L218.231 50.1064ZM216.356 38.824V36.712H210.356V38.824H216.356ZM216.356 36.712C216.356 32.6744 216.978 28.693 218.231 24.7576L212.513 22.9384C211.077 27.451 210.356 32.0456 210.356 36.712H216.356ZM218.218 24.7967C219.506 20.9313 221.465 17.4202 224.108 14.2485L219.499 10.4074C216.382 14.1478 214.053 18.3167 212.526 22.8993L218.218 24.7967ZM224.108 14.2485C226.682 11.1607 229.963 8.67048 234.01 6.79356L231.486 1.35043C226.701 3.56951 222.686 6.58333 219.499 10.4074L224.108 14.2485ZM234.027 6.78557C238.026 4.90011 242.852 3.90399 248.588 3.90399V-2.09601C242.164 -2.09601 236.429 -0.980125 231.468 1.35842L234.027 6.78557ZM248.588 3.90399C254.562 3.90399 259.593 4.98945 263.773 7.05061L266.427 1.66938C261.262 -0.877458 255.286 -2.09601 248.588 -2.09601V3.90399ZM263.817 7.07196C268.089 9.09259 271.442 11.946 273.943 15.6417L278.912 12.2783C275.782 7.65398 271.582 4.1074 266.382 1.64804L263.817 7.07196ZM273.956 15.6596C276.457 19.2979 278.002 23.6086 278.532 28.6722L284.499 28.0477C283.877 22.1033 282.031 16.8141 278.9 12.2604L273.956 15.6596ZM281.516 25.36H267.788V31.36H281.516V25.36ZM270.75 27.886C270.167 24.2394 268.827 21.035 266.648 18.3889L262.016 22.2031C263.421 23.909 264.385 26.0806 264.825 28.834L270.75 27.886ZM266.707 18.4636C264.646 15.7913 262.002 13.8056 258.833 12.5232L256.582 18.0848C258.79 18.9784 260.562 20.3207 261.956 22.1284L266.707 18.4636ZM258.889 12.5466C255.773 11.211 252.322 10.576 248.588 10.576V16.576C251.638 16.576 254.266 17.093 256.526 18.0614L258.889 12.5466ZM248.588 10.576C244.778 10.576 241.273 11.2473 238.135 12.6667L240.608 18.1333C242.847 17.1207 245.486 16.576 248.588 16.576V10.576ZM238.19 12.6426C235.079 13.976 232.444 15.9249 230.336 18.4849L234.968 22.2991C236.443 20.5071 238.289 19.128 240.553 18.1574L238.19 12.6426ZM230.336 18.4849C228.283 20.9774 226.736 23.8768 225.672 27.1419L231.376 29.0021C232.231 26.3792 233.436 24.1586 234.968 22.2991L230.336 18.4849ZM225.654 27.1985C224.659 30.4678 224.18 34.0315 224.18 37.864H230.18C230.18 34.5285 230.597 31.5642 231.394 28.9455L225.654 27.1985ZM224.18 37.864C224.18 41.5801 224.662 45.0779 225.654 48.3375L231.394 46.5905C230.594 43.9621 230.18 41.0599 230.18 37.864H224.18ZM225.672 48.3941C226.741 51.6739 228.325 54.6047 230.438 57.154L235.058 53.3259C233.458 51.3953 232.226 49.1421 231.376 46.5339L225.672 48.3941ZM230.465 57.1868C232.617 59.7095 235.25 61.6692 238.327 63.0613L240.8 57.5947C238.501 56.5548 236.591 55.1225 235.03 53.2932L230.465 57.1868ZM238.351 63.0721C241.551 64.4859 245.145 65.152 249.068 65.152V59.152C245.823 59.152 243.08 58.6021 240.776 57.5839L238.351 63.0721ZM249.068 65.152C254.818 65.152 259.875 63.742 264.059 60.7532L260.572 55.8708C257.588 58.002 253.813 59.152 249.068 59.152V65.152ZM264.068 60.7474C268.398 57.6325 271.011 53.2639 271.9 47.8546L265.979 46.8814C265.333 50.8161 263.529 53.7435 260.564 55.8766L264.068 60.7474ZM268.94 50.368H282.668V44.368H268.94V50.368ZM279.692 46.9865C279.11 51.5276 277.574 55.6671 275.078 59.4408L280.082 62.7512C283.089 58.2049 284.946 53.1924 285.643 47.7495L279.692 46.9865ZM275.078 59.4408C272.63 63.1403 269.255 66.137 264.868 68.4183L267.636 73.7416C272.849 71.031 277.025 67.3717 280.082 62.7512L275.078 59.4408ZM264.868 68.4183C260.583 70.6466 255.351 71.824 249.068 71.824V77.824C256.096 77.824 262.321 76.5054 267.636 73.7416L264.868 68.4183ZM310.587 71.464L309.276 74.1621L309.283 74.1656L309.29 74.1691L310.587 71.464ZM299.067 62.728L296.753 64.6365L296.771 64.6586L296.789 64.6804L299.067 62.728ZM292.251 51.016L289.418 52.0032L289.427 52.0293L289.437 52.0551L292.251 51.016ZM292.347 23.944L295.167 24.9692L295.169 24.9625L295.171 24.9557L292.347 23.944ZM299.259 12.328L297.038 10.312L297.027 10.3234L297.017 10.3349L299.259 12.328ZM310.875 4.07199L312.094 6.81343L312.109 6.8064L312.125 6.79919L310.875 4.07199ZM343.227 4.07199L341.977 6.79919L341.993 6.8064L342.009 6.81343L343.227 4.07199ZM354.747 12.328L352.505 14.3211L352.515 14.3326L352.526 14.344L354.747 12.328ZM361.755 23.944L358.931 24.9557L358.933 24.9625L358.936 24.9692L361.755 23.944ZM361.755 51.016L358.936 49.9908L358.931 50.003L358.927 50.0153L361.755 51.016ZM354.939 62.728L352.645 60.7956L352.641 60.7994L354.939 62.728ZM343.419 71.464L342.122 68.7588L342.115 68.7623L342.108 68.7659L343.419 71.464ZM336.699 60.232L335.481 57.4906L335.469 57.4957L335.458 57.5009L336.699 60.232ZM343.995 54.952L341.753 52.9589L341.749 52.9629L343.995 54.952ZM348.603 47.176L345.789 46.136L345.783 46.1535L345.777 46.171L348.603 47.176ZM348.603 28.168L345.77 29.1536L345.779 29.1808L345.789 29.2079L348.603 28.168ZM343.995 20.488L341.778 22.5093L341.794 22.5268L341.811 22.5441L343.995 20.488ZM336.699 15.4L337.866 12.6362L336.699 15.4ZM317.403 15.4L318.57 18.1637L317.403 15.4ZM310.011 20.488L307.827 18.4319L307.81 18.4492L307.794 18.4667L310.011 20.488ZM305.403 28.168L302.589 27.128L302.579 27.1551L302.57 27.1824L305.403 28.168ZM305.403 47.176L302.57 48.1616L302.583 48.1991L302.597 48.2362L305.403 47.176ZM310.011 54.952L307.738 56.9096L307.767 56.9434L307.797 56.9763L310.011 54.952ZM317.403 60.232L316.185 62.9734L317.403 60.232ZM327.099 71.824C321.114 71.824 316.071 70.7664 311.884 68.7588L309.29 74.1691C314.447 76.6416 320.412 77.824 327.099 77.824V71.824ZM311.899 68.7659C307.629 66.6901 304.127 64.0216 301.345 60.7756L296.789 64.6804C300.151 68.6024 304.33 71.7579 309.276 74.1621L311.899 68.7659ZM301.382 60.8195C298.574 57.4139 296.477 53.8007 295.066 49.9769L289.437 52.0551C291.097 56.5513 293.545 60.7461 296.753 64.6365L301.382 60.8195ZM295.084 50.0288C293.707 46.0766 293.043 42.3468 293.043 38.824H287.043C287.043 43.1092 287.852 47.5074 289.418 52.0032L295.084 50.0288ZM293.043 38.824V36.712H287.043V38.824H293.043ZM293.043 36.712C293.043 32.7903 293.744 28.8806 295.167 24.9692L289.528 22.9188C287.878 27.4554 287.043 32.0577 287.043 36.712H293.043ZM295.171 24.9557C296.576 21.0346 298.68 17.4947 301.501 14.3211L297.017 10.3349C293.694 14.0733 291.19 18.2774 289.523 22.9323L295.171 24.9557ZM301.481 14.344C304.315 11.2211 307.836 8.70581 312.094 6.81343L309.657 1.33056C304.699 3.53418 300.476 6.52284 297.038 10.312L301.481 14.344ZM312.125 6.79919C316.263 4.90264 321.228 3.90399 327.099 3.90399V-2.09601C320.555 -2.09601 314.703 -0.982652 309.625 1.3448L312.125 6.79919ZM327.099 3.90399C332.902 3.90399 337.836 4.90092 341.977 6.79919L344.477 1.3448C339.403 -0.980931 333.585 -2.09601 327.099 -2.09601V3.90399ZM342.009 6.81343C346.262 8.70369 349.742 11.2127 352.505 14.3211L356.989 10.3349C353.608 6.53133 349.409 3.5363 344.446 1.33056L342.009 6.81343ZM352.526 14.344C355.403 17.5154 357.531 21.048 358.931 24.9557L364.58 22.9323C362.907 18.264 360.363 14.0526 356.969 10.312L352.526 14.344ZM358.936 24.9692C360.358 28.8806 361.059 32.7903 361.059 36.712H367.059C367.059 32.0577 366.224 27.4554 364.575 22.9188L358.936 24.9692ZM361.059 36.712V38.824H367.059V36.712H361.059ZM361.059 38.824C361.059 42.3298 360.37 46.0464 358.936 49.9908L364.575 52.0412C366.212 47.5376 367.059 43.1262 367.059 38.824H361.059ZM358.927 50.0153C357.585 53.8086 355.503 57.4012 352.645 60.7956L357.234 64.6604C360.52 60.7588 362.982 56.5434 364.583 52.0167L358.927 50.0153ZM352.641 60.7994C349.936 64.0226 346.451 66.6835 342.122 68.7588L344.716 74.1691C349.732 71.7645 353.926 68.6014 357.237 64.6566L352.641 60.7994ZM342.108 68.7659C337.99 70.7677 333.017 71.824 327.099 71.824V77.824C333.726 77.824 339.633 76.6403 344.731 74.1621L342.108 68.7659ZM327.099 65.152C331.044 65.152 334.678 64.4463 337.941 62.9631L335.458 57.5009C333.089 58.5777 330.323 59.152 327.099 59.152V65.152ZM337.918 62.9734C341.169 61.5285 343.957 59.5195 346.241 56.9411L341.749 52.9629C340.065 54.8645 337.99 56.3754 335.481 57.4906L337.918 62.9734ZM346.237 56.9451C348.54 54.3549 350.275 51.4281 351.43 48.181L345.777 46.171C344.883 48.6839 343.547 50.941 341.753 52.9589L346.237 56.9451ZM351.417 48.2159C352.633 44.9258 353.235 41.4685 353.235 37.864H347.235C347.235 40.7874 346.749 43.5382 345.789 46.136L351.417 48.2159ZM353.235 37.864C353.235 34.0319 352.642 30.4429 351.417 27.128L345.789 29.2079C346.74 31.7811 347.235 34.6561 347.235 37.864H353.235ZM351.437 27.1824C350.28 23.8575 348.529 20.9284 346.18 18.4319L341.811 22.5441C343.557 24.3996 344.878 26.5905 345.77 29.1536L351.437 27.1824ZM346.212 18.4667C343.918 15.9507 341.121 14.0103 337.866 12.6362L335.532 18.1637C338.038 19.2217 340.104 20.6733 341.778 22.5093L346.212 18.4667ZM337.866 12.6362C334.573 11.2459 330.97 10.576 327.099 10.576V16.576C330.269 16.576 333.065 17.1221 335.532 18.1637L337.866 12.6362ZM327.099 10.576C323.173 10.576 319.536 11.2432 316.236 12.6362L318.57 18.1637C321.031 17.1248 323.858 16.576 327.099 16.576V10.576ZM316.236 12.6362C312.99 14.0071 310.174 15.9377 307.827 18.4319L312.196 22.5441C313.944 20.6863 316.057 19.2249 318.57 18.1637L316.236 12.6362ZM307.794 18.4667C305.533 20.9467 303.802 23.8457 302.589 27.128L308.217 29.2079C309.18 26.6023 310.521 24.3812 312.228 22.5093L307.794 18.4667ZM302.57 27.1824C301.422 30.4814 300.867 34.0514 300.867 37.864H306.867C306.867 34.6366 307.336 31.7425 308.237 29.1536L302.57 27.1824ZM300.867 37.864C300.867 41.4475 301.43 44.8859 302.57 48.1616L308.237 46.1904C307.328 43.5781 306.867 40.8084 306.867 37.864H300.867ZM302.597 48.2362C303.807 51.44 305.522 54.3365 307.738 56.9096L312.285 52.9944C310.532 50.9595 309.175 48.672 308.21 46.1158L302.597 48.2362ZM307.797 56.9763C310.135 59.5331 312.942 61.5321 316.185 62.9734L318.622 57.4906C316.105 56.3719 313.984 54.8508 312.225 52.9277L307.797 56.9763ZM316.185 62.9734C319.498 64.4458 323.153 65.152 327.099 65.152V59.152C323.878 59.152 321.069 58.5782 318.622 57.4906L316.185 62.9734ZM377.234 73H374.234V76H377.234V73ZM377.234 2.92V-0.0800026H374.234V2.92H377.234ZM395.858 2.92L398.624 1.75895L397.852 -0.0800026H395.858V2.92ZM413.426 44.776L410.66 45.937L411.431 47.776H413.426V44.776ZM415.154 44.776V47.776H417.152L417.922 45.9316L415.154 44.776ZM432.626 2.92V-0.0800026H430.627L429.857 1.76435L432.626 2.92ZM451.538 2.92H454.538V-0.0800026H451.538V2.92ZM451.538 73V76H454.538V73H451.538ZM438.002 73H435.002V76H438.002V73ZM438.002 13.192L438.333 10.2103L435.002 9.84021V13.192H438.002ZM439.73 13.384L442.498 14.5395L444.04 10.8445L440.061 10.4023L439.73 13.384ZM420.818 58.696V61.696H422.816L423.586 59.8515L420.818 58.696ZM406.898 58.696L404.131 59.8565L404.903 61.696H406.898V58.696ZM387.89 13.384L387.576 10.4005L383.562 10.823L385.123 14.5445L387.89 13.384ZM389.714 13.192H392.714V9.85964L389.4 10.2085L389.714 13.192ZM389.714 73V76H392.714V73H389.714ZM380.234 73V2.92H374.234V73H380.234ZM377.234 5.92H395.858V-0.0800026H377.234V5.92ZM393.091 4.08105L410.66 45.937L416.192 43.6149L398.624 1.75895L393.091 4.08105ZM413.426 47.776H415.154V41.776H413.426V47.776ZM417.922 45.9316L435.394 4.07565L429.857 1.76435L412.385 43.6203L417.922 45.9316ZM432.626 5.92H451.538V-0.0800026H432.626V5.92ZM448.538 2.92V73H454.538V2.92H448.538ZM451.538 70H438.002V76H451.538V70ZM441.002 73V13.192H435.002V73H441.002ZM437.67 16.1736L439.398 16.3656L440.061 10.4023L438.333 10.2103L437.67 16.1736ZM436.961 12.2285L418.049 57.5405L423.586 59.8515L442.498 14.5395L436.961 12.2285ZM420.818 55.696H406.898V61.696H420.818V55.696ZM409.664 57.5355L390.656 12.2235L385.123 14.5445L404.131 59.8565L409.664 57.5355ZM388.204 16.3675L390.028 16.1755L389.4 10.2085L387.576 10.4005L388.204 16.3675ZM386.714 13.192V73H392.714V13.192H386.714ZM389.714 70H377.234V76H389.714V70ZM468.827 73H465.827V76H468.827V73ZM468.827 2.92V-0.0800026H465.827V2.92H468.827ZM482.171 2.92H485.171V-0.0800026H482.171V2.92ZM482.171 73V76H485.171V73H482.171ZM480.251 73H477.251V76H480.251V73ZM480.251 61.48V58.48H477.251V61.48H480.251ZM512.027 61.48H515.027V58.48H512.027V61.48ZM512.027 73V76H515.027V73H512.027ZM480.251 43.144H477.251V46.144H480.251V43.144ZM480.251 31.624V28.624H477.251V31.624H480.251ZM509.531 31.624H512.531V28.624H509.531V31.624ZM509.531 43.144V46.144H512.531V43.144H509.531ZM480.251 14.44H477.251V17.44H480.251V14.44ZM480.251 2.92V-0.0800026H477.251V2.92H480.251ZM511.259 2.92H514.259V-0.0800026H511.259V2.92ZM511.259 14.44V17.44H514.259V14.44H511.259ZM471.827 73V2.92H465.827V73H471.827ZM468.827 5.92H482.171V-0.0800026H468.827V5.92ZM479.171 2.92V73H485.171V2.92H479.171ZM482.171 70H468.827V76H482.171V70ZM483.251 73V61.48H477.251V73H483.251ZM480.251 64.48H512.027V58.48H480.251V64.48ZM509.027 61.48V73H515.027V61.48H509.027ZM512.027 70H480.251V76H512.027V70ZM483.251 43.144V31.624H477.251V43.144H483.251ZM480.251 34.624H509.531V28.624H480.251V34.624ZM506.531 31.624V43.144H512.531V31.624H506.531ZM509.531 40.144H480.251V46.144H509.531V40.144ZM483.251 14.44V2.92H477.251V14.44H483.251ZM480.251 5.92H511.259V-0.0800026H480.251V5.92ZM508.259 2.92V14.44H514.259V2.92H508.259ZM511.259 11.44H480.251V17.44H511.259V11.44ZM560.558 73H557.558V76H560.558V73ZM560.558 13V10H557.558V13H560.558ZM574.19 13H577.19V10H574.19V13ZM574.19 73V76H577.19V73H574.19ZM540.302 14.92H537.302V17.92H540.302V14.92ZM540.302 2.92V-0.0800026H537.302V2.92H540.302ZM594.446 2.92H597.446V-0.0800026H594.446V2.92ZM594.446 14.92V17.92H597.446V14.92H594.446ZM563.558 73V13H557.558V73H563.558ZM560.558 16H574.19V10H560.558V16ZM571.19 13V73H577.19V13H571.19ZM574.19 70H560.558V76H574.19V70ZM543.302 14.92V2.92H537.302V14.92H543.302ZM540.302 5.92H594.446V-0.0800026H540.302V5.92ZM591.446 2.92V14.92H597.446V2.92H591.446ZM594.446 11.92H540.302V17.92H594.446V11.92ZM619.681 71.464L618.369 74.1621L618.377 74.1656L618.384 74.1691L619.681 71.464ZM608.161 62.728L605.846 64.6365L605.865 64.6586L605.883 64.6804L608.161 62.728ZM601.345 51.016L598.512 52.0032L598.521 52.0293L598.531 52.0551L601.345 51.016ZM601.441 23.944L604.26 24.9692L604.263 24.9625L604.265 24.9557L601.441 23.944ZM608.353 12.328L606.131 10.312L606.121 10.3234L606.111 10.3349L608.353 12.328ZM619.969 4.07199L621.187 6.81343L621.203 6.8064L621.219 6.79919L619.969 4.07199ZM652.321 4.07199L651.071 6.79919L651.087 6.8064L651.103 6.81343L652.321 4.07199ZM663.841 12.328L661.599 14.3211L661.609 14.3326L661.619 14.344L663.841 12.328ZM670.849 23.944L668.025 24.9557L668.027 24.9625L668.03 24.9692L670.849 23.944ZM670.849 51.016L668.03 49.9908L668.025 50.003L668.021 50.0153L670.849 51.016ZM664.033 62.728L661.738 60.7956L661.735 60.7994L664.033 62.728ZM652.513 71.464L651.216 68.7588L651.209 68.7623L651.201 68.7659L652.513 71.464ZM645.793 60.232L644.575 57.4906L644.563 57.4957L644.552 57.5009L645.793 60.232ZM653.089 54.952L650.847 52.9589L650.843 52.9629L653.089 54.952ZM657.697 47.176L654.883 46.136L654.877 46.1535L654.87 46.171L657.697 47.176ZM657.697 28.168L654.863 29.1536L654.873 29.1808L654.883 29.2079L657.697 28.168ZM653.089 20.488L650.872 22.5093L650.888 22.5268L650.904 22.5441L653.089 20.488ZM645.793 15.4L646.96 12.6362L645.793 15.4ZM626.497 15.4L627.664 18.1637L626.497 15.4ZM619.105 20.488L616.92 18.4319L616.904 18.4492L616.888 18.4667L619.105 20.488ZM614.497 28.168L611.683 27.128L611.673 27.1551L611.663 27.1824L614.497 28.168ZM614.497 47.176L611.663 48.1616L611.677 48.1991L611.691 48.2362L614.497 47.176ZM619.105 54.952L616.832 56.9096L616.861 56.9434L616.891 56.9763L619.105 54.952ZM626.497 60.232L625.279 62.9734L626.497 60.232ZM636.193 71.824C630.208 71.824 625.165 70.7664 620.978 68.7588L618.384 74.1691C623.541 76.6416 629.506 77.824 636.193 77.824V71.824ZM620.993 68.7659C616.722 66.6901 613.221 64.0216 610.439 60.7756L605.883 64.6804C609.245 68.6024 613.424 71.7579 618.369 74.1621L620.993 68.7659ZM610.476 60.8195C607.668 57.4139 605.571 53.8007 604.159 49.9769L598.531 52.0551C600.191 56.5513 602.638 60.7461 605.846 64.6365L610.476 60.8195ZM604.178 50.0288C602.801 46.0766 602.137 42.3468 602.137 38.824H596.137C596.137 43.1092 596.945 47.5074 598.512 52.0032L604.178 50.0288ZM602.137 38.824V36.712H596.137V38.824H602.137ZM602.137 36.712C602.137 32.7903 602.838 28.8806 604.26 24.9692L598.622 22.9188C596.972 27.4554 596.137 32.0577 596.137 36.712H602.137ZM604.265 24.9557C605.67 21.0346 607.774 17.4947 610.595 14.3211L606.111 10.3349C602.788 14.0733 600.284 18.2774 598.617 22.9323L604.265 24.9557ZM610.575 14.344C613.408 11.2211 616.93 8.70581 621.187 6.81343L618.751 1.33056C613.792 3.53418 609.57 6.52284 606.131 10.312L610.575 14.344ZM621.219 6.79919C625.357 4.90264 630.322 3.90399 636.193 3.90399V-2.09601C629.648 -2.09601 623.797 -0.982652 618.719 1.3448L621.219 6.79919ZM636.193 3.90399C641.995 3.90399 646.929 4.90092 651.071 6.79919L653.571 1.3448C648.497 -0.980931 642.679 -2.09601 636.193 -2.09601V3.90399ZM651.103 6.81343C655.356 8.70369 658.836 11.2127 661.599 14.3211L666.083 10.3349C662.702 6.53133 658.502 3.5363 653.539 1.33056L651.103 6.81343ZM661.619 14.344C664.497 17.5154 666.625 21.048 668.025 24.9557L673.673 22.9323C672.001 18.264 669.457 14.0526 666.063 10.312L661.619 14.344ZM668.03 24.9692C669.452 28.8806 670.153 32.7903 670.153 36.712H676.153C676.153 32.0577 675.318 27.4554 673.668 22.9188L668.03 24.9692ZM670.153 36.712V38.824H676.153V36.712H670.153ZM670.153 38.824C670.153 42.3298 669.464 46.0464 668.03 49.9908L673.668 52.0412C675.306 47.5376 676.153 43.1262 676.153 38.824H670.153ZM668.021 50.0153C666.679 53.8086 664.597 57.4012 661.738 60.7956L666.328 64.6604C669.613 60.7588 672.075 56.5434 673.677 52.0167L668.021 50.0153ZM661.735 60.7994C659.03 64.0226 655.545 66.6835 651.216 68.7588L653.81 74.1691C658.825 71.7645 663.02 68.6014 666.331 64.6566L661.735 60.7994ZM651.201 68.7659C647.083 70.7677 642.111 71.824 636.193 71.824V77.824C642.819 77.824 648.727 76.6403 653.825 74.1621L651.201 68.7659ZM636.193 65.152C640.138 65.152 643.771 64.4463 647.034 62.9631L644.552 57.5009C642.183 58.5777 639.416 59.152 636.193 59.152V65.152ZM647.011 62.9734C650.262 61.5285 653.051 59.5195 655.335 56.9411L650.843 52.9629C649.159 54.8645 647.084 56.3754 644.575 57.4906L647.011 62.9734ZM655.331 56.9451C657.634 54.3549 659.369 51.4281 660.524 48.181L654.87 46.171C653.977 48.6839 652.64 50.941 650.847 52.9589L655.331 56.9451ZM660.511 48.2159C661.727 44.9258 662.329 41.4685 662.329 37.864H656.329C656.329 40.7874 655.843 43.5382 654.883 46.136L660.511 48.2159ZM662.329 37.864C662.329 34.0319 661.736 30.4429 660.511 27.128L654.883 29.2079C655.834 31.7811 656.329 34.6561 656.329 37.864H662.329ZM660.53 27.1824C659.374 23.8575 657.623 20.9284 655.274 18.4319L650.904 22.5441C652.651 24.3996 653.972 26.5905 654.863 29.1536L660.53 27.1824ZM655.306 18.4667C653.012 15.9507 650.214 14.0103 646.96 12.6362L644.626 18.1637C647.132 19.2217 649.198 20.6733 650.872 22.5093L655.306 18.4667ZM646.96 12.6362C643.667 11.2459 640.063 10.576 636.193 10.576V16.576C639.363 16.576 642.159 17.1221 644.626 18.1637L646.96 12.6362ZM636.193 10.576C632.266 10.576 628.629 11.2432 625.33 12.6362L627.664 18.1637C630.124 17.1248 632.952 16.576 636.193 16.576V10.576ZM625.33 12.6362C622.083 14.0071 619.268 15.9377 616.92 18.4319L621.29 22.5441C623.038 20.6863 625.151 19.2249 627.664 18.1637L625.33 12.6362ZM616.888 18.4667C614.627 20.9467 612.896 23.8457 611.683 27.128L617.311 29.2079C618.274 26.6023 619.615 24.3812 621.322 22.5093L616.888 18.4667ZM611.663 27.1824C610.516 30.4814 609.961 34.0514 609.961 37.864H615.961C615.961 34.6366 616.43 31.7425 617.33 29.1536L611.663 27.1824ZM609.961 37.864C609.961 41.4475 610.524 44.8859 611.663 48.1616L617.33 46.1904C616.422 43.5781 615.961 40.8084 615.961 37.864H609.961ZM611.691 48.2362C612.901 51.44 614.616 54.3365 616.832 56.9096L621.378 52.9944C619.626 50.9595 618.269 48.672 617.303 46.1158L611.691 48.2362ZM616.891 56.9763C619.229 59.5331 622.036 61.5321 625.279 62.9734L627.715 57.4906C625.198 56.3719 623.077 54.8508 621.319 52.9277L616.891 56.9763ZM625.279 62.9734C628.591 64.4458 632.247 65.152 636.193 65.152V59.152C632.971 59.152 630.163 58.5782 627.715 57.4906L625.279 62.9734ZM18.352 158.496H15.352V161.496H18.352V158.496ZM18.352 146.688V143.688H15.352V146.688H18.352ZM38.896 145.056L37.417 142.446L37.3978 142.457L37.3788 142.468L38.896 145.056ZM43.216 140.544L40.5689 139.132L40.5504 139.167L40.5327 139.202L43.216 140.544ZM43.216 127.296L40.5327 128.638L40.5504 128.673L40.5689 128.708L43.216 127.296ZM38.896 122.88L37.3788 125.468L37.4309 125.499L37.4842 125.527L38.896 122.88ZM18.352 121.248H15.352V124.248H18.352V121.248ZM18.352 109.44V106.44H15.352V109.44H18.352ZM45.808 112.32L44.5347 115.036L44.5428 115.04L44.5508 115.044L45.808 112.32ZM55.312 120.576L52.7476 122.133L52.7539 122.143L52.7602 122.153L55.312 120.576ZM55.312 147.36L57.8638 148.937L57.8701 148.927L57.8764 148.917L55.312 147.36ZM45.808 155.616L47.0813 158.332L47.0904 158.328L47.0994 158.324L45.808 155.616ZM6.64 180H3.64V183H6.64V180ZM6.64 109.44V106.44H3.64V109.44H6.64ZM20.272 109.44H23.272V106.44H20.272V109.44ZM20.272 180V183H23.272V180H20.272ZM21.352 158.496V146.688H15.352V158.496H21.352ZM18.352 149.688H31.984V143.688H18.352V149.688ZM31.984 149.688C35.1231 149.688 37.9855 149.067 40.4132 147.644L37.3788 142.468C36.0945 143.221 34.3489 143.688 31.984 143.688V149.688ZM40.375 147.666C42.7981 146.293 44.6649 144.354 45.8993 141.886L40.5327 139.202C39.8471 140.574 38.8339 141.643 37.417 142.446L40.375 147.666ZM45.8631 141.956C47.1509 139.541 47.752 136.835 47.752 133.92H41.752C41.752 135.997 41.3291 137.707 40.5689 139.132L45.8631 141.956ZM47.752 133.92C47.752 131.005 47.1509 128.299 45.8631 125.884L40.5689 128.708C41.3291 130.133 41.752 131.843 41.752 133.92H47.752ZM45.8993 125.954C44.657 123.47 42.7687 121.545 40.3078 120.233L37.4842 125.527C38.8633 126.263 39.855 127.282 40.5327 128.638L45.8993 125.954ZM40.4132 120.292C37.9855 118.869 35.1231 118.248 31.984 118.248V124.248C34.3489 124.248 36.0945 124.715 37.3788 125.468L40.4132 120.292ZM31.984 118.248H18.352V124.248H31.984V118.248ZM21.352 121.248V109.44H15.352V121.248H21.352ZM18.352 112.44H30.832V106.44H18.352V112.44ZM30.832 112.44C36.4073 112.44 40.9384 113.351 44.5347 115.036L47.0813 109.604C42.4856 107.449 37.0327 106.44 30.832 106.44V112.44ZM44.5508 115.044C48.2212 116.738 50.9102 119.107 52.7476 122.133L57.8764 119.019C55.3618 114.877 51.7148 111.742 47.0652 109.596L44.5508 115.044ZM52.7602 122.153C54.5952 125.122 55.576 128.746 55.576 133.152H61.576C61.576 127.83 60.3808 123.07 57.8638 118.999L52.7602 122.153ZM55.576 133.152V134.688H61.576V133.152H55.576ZM55.576 134.688C55.576 139.092 54.5957 142.759 52.7476 145.803L57.8764 148.917C60.3803 144.793 61.576 140.012 61.576 134.688H55.576ZM52.7602 145.783C50.9209 148.758 48.2178 151.143 44.5166 152.908L47.0994 158.324C51.7182 156.121 55.3511 153.002 57.8638 148.937L52.7602 145.783ZM44.5347 152.9C40.9384 154.585 36.4073 155.496 30.832 155.496V161.496C37.0327 161.496 42.4856 160.487 47.0813 158.332L44.5347 152.9ZM30.832 155.496H18.352V161.496H30.832V155.496ZM9.64 180V109.44H3.64V180H9.64ZM6.64 112.44H20.272V106.44H6.64V112.44ZM17.272 109.44V180H23.272V109.44H17.272ZM20.272 177H6.64V183H20.272V177ZM57.853 180L55.0136 179.031L53.66 183H57.853V180ZM81.757 109.92V106.92H79.6106L78.9176 108.951L81.757 109.92ZM104.029 109.92L106.86 108.927L106.156 106.92H104.029V109.92ZM128.605 180V183H132.836L131.436 179.007L128.605 180ZM114.589 180L111.751 180.973L112.446 183H114.589V180ZM93.757 119.232L94.9453 116.477L88.7208 113.792L90.9191 120.205L93.757 119.232ZM98.653 121.344V124.344L99.8413 118.589L98.653 121.344ZM86.653 121.344L85.4841 118.581L86.653 124.344V121.344ZM91.645 119.232L94.4924 120.177L96.579 113.887L90.4761 116.469L91.645 119.232ZM71.485 180V183H73.6505L74.3324 180.945L71.485 180ZM74.557 161.376L71.748 160.323L70.228 164.376H74.557V161.376ZM78.877 149.856V146.856H76.798L76.068 148.803L78.877 149.856ZM107.293 149.856L110.11 148.823L109.388 146.856H107.293V149.856ZM111.517 161.376V164.376H115.812L114.334 160.343L111.517 161.376ZM60.6924 180.968L84.5964 110.888L78.9176 108.951L55.0136 179.031L60.6924 180.968ZM81.757 112.92H104.029V106.92H81.757V112.92ZM101.198 110.913L125.774 180.993L131.436 179.007L106.86 108.927L101.198 110.913ZM128.605 177H114.589V183H128.605V177ZM117.427 179.027L96.5949 118.259L90.9191 120.205L111.751 180.973L117.427 179.027ZM92.5687 121.987L97.4647 124.099L99.8413 118.589L94.9453 116.477L92.5687 121.987ZM98.653 118.344H86.653V124.344H98.653V118.344ZM87.8219 124.107L92.8139 121.995L90.4761 116.469L85.4841 118.581L87.8219 124.107ZM88.7976 118.287L68.6376 179.055L74.3324 180.945L94.4924 120.177L88.7976 118.287ZM71.485 177H57.853V183H71.485V177ZM77.366 162.429L81.686 150.909L76.068 148.803L71.748 160.323L77.366 162.429ZM78.877 152.856H107.293V146.856H78.877V152.856ZM104.476 150.889L108.7 162.409L114.334 160.343L110.11 148.823L104.476 150.889ZM111.517 158.376H74.557V164.376H111.517V158.376ZM146.267 153.216L143.571 154.531L144.393 156.216H146.267V153.216ZM125.147 109.92V106.92H120.346L122.451 111.235L125.147 109.92ZM139.163 109.92L141.872 108.631L141.058 106.92H139.163V109.92ZM155.291 143.808L154.397 146.671L160.952 148.72L158 142.519L155.291 143.808ZM152.219 142.848V139.848L151.325 145.711L152.219 142.848ZM161.339 142.848L162.186 145.726L161.339 139.848V142.848ZM158.075 143.808L155.323 142.615L152.775 148.494L158.922 146.686L158.075 143.808ZM172.763 109.92V106.92H170.794L170.011 108.727L172.763 109.92ZM186.011 109.92L188.747 111.151L190.652 106.92H186.011V109.92ZM166.523 153.216V156.216H168.463L169.259 154.447L166.523 153.216ZM149.723 180H146.723V183H149.723V180ZM149.723 151.104V148.104H146.723V151.104H149.723ZM163.067 151.104H166.067V148.104H163.067V151.104ZM163.067 180V183H166.067V180H163.067ZM148.964 151.901L127.844 108.605L122.451 111.235L143.571 154.531L148.964 151.901ZM125.147 112.92H139.163V106.92H125.147V112.92ZM136.455 111.209L152.583 145.097L158 142.519L141.872 108.631L136.455 111.209ZM156.186 140.945L153.114 139.985L151.325 145.711L154.397 146.671L156.186 140.945ZM152.219 145.848H161.339V139.848H152.219V145.848ZM160.493 139.97L157.229 140.93L158.922 146.686L162.186 145.726L160.493 139.97ZM160.828 145.001L175.516 111.113L170.011 108.727L155.323 142.615L160.828 145.001ZM172.763 112.92H186.011V106.92H172.763V112.92ZM183.276 108.689L163.788 151.985L169.259 154.447L188.747 111.151L183.276 108.689ZM166.523 150.216H146.267V156.216H166.523V150.216ZM152.723 180V151.104H146.723V180H152.723ZM149.723 154.104H163.067V148.104H149.723V154.104ZM160.067 151.104V180H166.067V151.104H160.067ZM163.067 177H149.723V183H163.067V177ZM207.446 180.384H204.446V183.384H207.446V180.384ZM207.446 167.712V164.712H204.446V167.712H207.446ZM231.638 166.08L232.719 168.878L232.735 168.872L232.752 168.865L231.638 166.08ZM243.446 154.08L240.647 152.999L240.641 153.016L240.634 153.034L243.446 154.08ZM243.446 135.36L240.626 136.385L240.641 136.424L240.656 136.463L243.446 135.36ZM231.638 123.648L230.613 126.467L230.623 126.471L230.633 126.475L231.638 123.648ZM207.446 122.112H204.446V125.112H207.446V122.112ZM207.446 109.44V106.44H204.446V109.44H207.446ZM249.494 119.904L247.33 121.982L247.341 121.993L247.351 122.004L249.494 119.904ZM256.502 130.944L253.687 131.983L253.697 132.009L253.707 132.036L256.502 130.944ZM256.502 158.304L253.707 157.212L253.7 157.231L253.693 157.251L256.502 158.304ZM249.494 169.44L247.31 167.383L249.494 169.44ZM237.686 177.408L238.845 180.175L237.686 177.408ZM195.734 180.384H192.734V183.384H195.734V180.384ZM195.734 109.44V106.44H192.734V109.44H195.734ZM209.366 109.44H212.366V106.44H209.366V109.44ZM209.366 180.384V183.384H212.366V180.384H209.366ZM210.446 180.384V167.712H204.446V180.384H210.446ZM207.446 170.712H221.942V164.712H207.446V170.712ZM221.942 170.712C225.885 170.712 229.494 170.124 232.719 168.878L230.557 163.282C228.149 164.212 225.295 164.712 221.942 164.712V170.712ZM232.752 168.865C235.989 167.571 238.786 165.745 241.088 163.367L236.779 159.193C235.114 160.911 233.046 162.285 230.524 163.295L232.752 168.865ZM241.088 163.367C243.37 161.013 245.093 158.255 246.257 155.126L240.634 153.034C239.75 155.409 238.466 157.451 236.779 159.193L241.088 163.367ZM246.244 155.161C247.481 151.96 248.078 148.484 248.078 144.768H242.078C242.078 147.836 241.587 150.568 240.647 152.999L246.244 155.161ZM248.078 144.768C248.078 140.94 247.486 137.42 246.236 134.257L240.656 136.463C241.581 138.804 242.078 141.556 242.078 144.768H248.078ZM246.265 134.335C245.102 131.135 243.37 128.353 241.055 126.039L236.812 130.281C238.466 131.935 239.742 133.953 240.626 136.385L246.265 134.335ZM241.055 126.039C238.729 123.712 235.905 121.981 232.643 120.821L230.633 126.475C233.131 127.363 235.171 128.64 236.812 130.281L241.055 126.039ZM232.663 120.829C229.456 119.662 225.866 119.112 221.942 119.112V125.112C225.314 125.112 228.188 125.586 230.613 126.467L232.663 120.829ZM221.942 119.112H207.446V125.112H221.942V119.112ZM210.446 122.112V109.44H204.446V122.112H210.446ZM207.446 112.44H221.078V106.44H207.446V112.44ZM221.078 112.44C227.128 112.44 232.278 113.327 236.591 115.017L238.78 109.431C233.622 107.409 227.7 106.44 221.078 106.44V112.44ZM236.591 115.017C240.974 116.735 244.53 119.068 247.33 121.982L251.657 117.826C248.185 114.212 243.87 111.425 238.78 109.431L236.591 115.017ZM247.351 122.004C250.194 124.905 252.3 128.224 253.687 131.983L259.316 129.905C257.632 125.344 255.065 121.303 251.636 117.804L247.351 122.004ZM253.707 132.036C255.171 135.782 255.902 139.668 255.902 143.712H261.902C261.902 138.924 261.033 134.298 259.296 129.852L253.707 132.036ZM255.902 143.712V145.824H261.902V143.712H255.902ZM255.902 145.824C255.902 149.659 255.177 153.45 253.707 157.212L259.296 159.396C261.026 154.966 261.902 150.437 261.902 145.824H255.902ZM253.693 157.251C252.303 160.957 250.186 164.331 247.31 167.383L251.677 171.497C255.074 167.893 257.629 163.843 259.311 159.357L253.693 157.251ZM247.31 167.383C244.496 170.369 240.923 172.799 236.527 174.641L238.845 180.175C243.921 178.049 248.22 175.167 251.677 171.497L247.31 167.383ZM236.527 174.641C232.233 176.44 227.106 177.384 221.078 177.384V183.384C227.721 183.384 233.667 182.344 238.845 180.175L236.527 174.641ZM221.078 177.384H207.446V183.384H221.078V177.384ZM198.734 180.384V109.44H192.734V180.384H198.734ZM195.734 112.44H209.366V106.44H195.734V112.44ZM206.366 109.44V180.384H212.366V109.44H206.366ZM209.366 177.384H195.734V183.384H209.366V177.384ZM271.301 180H268.301V183H271.301V180ZM271.301 109.92V106.92H268.301V109.92H271.301ZM284.933 109.92H287.933V106.92H284.933V109.92ZM284.933 180V183H287.933V180H284.933ZM274.301 180V109.92H268.301V180H274.301ZM271.301 112.92H284.933V106.92H271.301V112.92ZM281.933 109.92V180H287.933V109.92H281.933ZM284.933 177H271.301V183H284.933V177ZM295.509 180L292.67 179.031L291.316 183H295.509V180ZM319.413 109.92V106.92H317.267L316.574 108.951L319.413 109.92ZM341.685 109.92L344.516 108.927L343.812 106.92H341.685V109.92ZM366.261 180V183H370.492L369.092 179.007L366.261 180ZM352.245 180L349.407 180.973L350.102 183H352.245V180ZM331.413 119.232L332.602 116.477L326.377 113.792L328.575 120.205L331.413 119.232ZM336.309 121.344V124.344L337.498 118.589L336.309 121.344ZM324.309 121.344L323.14 118.581L324.309 124.344V121.344ZM329.301 119.232L332.149 120.177L334.235 113.887L328.132 116.469L329.301 119.232ZM309.141 180V183H311.307L311.989 180.945L309.141 180ZM312.213 161.376L309.404 160.323L307.884 164.376H312.213V161.376ZM316.533 149.856V146.856H314.454L313.724 148.803L316.533 149.856ZM344.949 149.856L347.766 148.823L347.045 146.856H344.949V149.856ZM349.173 161.376V164.376H353.469L351.99 160.343L349.173 161.376ZM298.349 180.968L322.253 110.888L316.574 108.951L292.67 179.031L298.349 180.968ZM319.413 112.92H341.685V106.92H319.413V112.92ZM338.854 110.913L363.43 180.993L369.092 179.007L344.516 108.927L338.854 110.913ZM366.261 177H352.245V183H366.261V177ZM355.083 179.027L334.251 118.259L328.575 120.205L349.407 180.973L355.083 179.027ZM330.225 121.987L335.121 124.099L337.498 118.589L332.602 116.477L330.225 121.987ZM336.309 118.344H324.309V124.344H336.309V118.344ZM325.478 124.107L330.47 121.995L328.132 116.469L323.14 118.581L325.478 124.107ZM326.454 118.287L306.294 179.055L311.989 180.945L332.149 120.177L326.454 118.287ZM309.141 177H295.509V183H309.141V177ZM315.022 162.429L319.342 150.909L313.724 148.803L309.404 160.323L315.022 162.429ZM316.533 152.856H344.949V146.856H316.533V152.856ZM342.133 150.889L346.357 162.409L351.99 160.343L347.766 148.823L342.133 150.889ZM349.173 158.376H312.213V164.376H349.173V158.376ZM408.814 180.48H405.814V183.48H408.814V180.48ZM408.814 169.536V166.536H405.814V169.536H408.814ZM433.678 166.944L435.839 169.025L435.858 169.005L435.876 168.985L433.678 166.944ZM433.678 152.544L431.517 154.625L431.537 154.645L431.557 154.665L433.678 152.544ZM408.814 149.952H405.814V152.952H408.814V149.952ZM408.814 141.6V138.6H405.814V141.6H408.814ZM437.902 143.328L436.999 146.189L437.028 146.198L437.058 146.207L437.902 143.328ZM446.542 148.896L444.177 150.742L444.191 150.76L444.205 150.777L446.542 148.896ZM446.926 171.456L444.388 169.856L444.383 169.864L444.379 169.871L446.926 171.456ZM438.766 178.176L439.948 180.933L439.959 180.928L439.971 180.923L438.766 178.176ZM397.39 180.48H394.39V183.48H397.39V180.48ZM397.39 109.44V106.44H394.39V109.44H397.39ZM410.734 109.44H413.734V106.44H410.734V109.44ZM410.734 180.48V183.48H413.734V180.48H410.734ZM408.814 147.744H405.814V150.744H408.814V147.744ZM408.814 139.392V136.392H405.814V139.392H408.814ZM430.99 136.8L433.232 138.793L430.99 136.8ZM430.99 122.976L433.232 120.983L430.99 122.976ZM408.814 120.384H405.814V123.384H408.814V120.384ZM408.814 109.44V106.44H405.814V109.44H408.814ZM440.59 114.432L438.698 116.76L438.707 116.767L438.716 116.775L440.59 114.432ZM443.662 140.544L441.325 138.663L441.319 138.67L443.662 140.544ZM435.118 146.112L435.975 148.987L435.998 148.98L436.021 148.973L435.118 146.112ZM411.814 180.48V169.536H405.814V180.48H411.814ZM408.814 172.536H426.382V166.536H408.814V172.536ZM426.382 172.536C430.114 172.536 433.439 171.517 435.839 169.025L431.517 164.863C430.589 165.827 429.05 166.536 426.382 166.536V172.536ZM435.876 168.985C438.179 166.506 439.174 163.275 439.174 159.648H433.174C433.174 162.165 432.505 163.798 431.48 164.903L435.876 168.985ZM439.174 159.648C439.174 156.033 438.183 152.806 435.799 150.423L431.557 154.665C432.501 155.61 433.174 157.119 433.174 159.648H439.174ZM435.839 150.463C433.439 147.971 430.114 146.952 426.382 146.952V152.952C429.05 152.952 430.589 153.661 431.517 154.625L435.839 150.463ZM426.382 146.952H408.814V152.952H426.382V146.952ZM411.814 149.952V141.6H405.814V149.952H411.814ZM408.814 144.6H425.422V138.6H408.814V144.6ZM425.422 144.6C429.853 144.6 433.699 145.147 436.999 146.189L438.805 140.467C434.809 139.205 430.335 138.6 425.422 138.6V144.6ZM437.058 146.207C440.268 147.148 442.576 148.69 444.177 150.742L448.907 147.05C446.412 143.854 442.96 141.684 438.746 140.449L437.058 146.207ZM444.205 150.777C445.77 152.722 446.71 155.51 446.71 159.456H452.71C452.71 154.57 451.538 150.318 448.879 147.015L444.205 150.777ZM446.71 159.456V160.8H452.71V159.456H446.71ZM446.71 160.8C446.71 164.505 445.888 167.478 444.388 169.856L449.464 173.056C451.676 169.546 452.71 165.414 452.71 160.8H446.71ZM444.379 169.871C442.959 172.152 440.754 174.028 437.561 175.429L439.971 180.923C444.074 179.124 447.309 176.52 449.473 173.041L444.379 169.871ZM437.584 175.419C434.483 176.748 430.466 177.48 425.422 177.48V183.48C431.002 183.48 435.881 182.676 439.948 180.933L437.584 175.419ZM425.422 177.48H408.814V183.48H425.422V177.48ZM400.39 180.48V109.44H394.39V180.48H400.39ZM397.39 112.44H410.734V106.44H397.39V112.44ZM407.734 109.44V180.48H413.734V109.44H407.734ZM410.734 177.48H397.39V183.48H410.734V177.48ZM411.814 147.744V139.392H405.814V147.744H411.814ZM408.814 142.392H423.79V136.392H408.814V142.392ZM423.79 142.392C427.547 142.392 430.923 141.391 433.232 138.793L428.748 134.807C427.985 135.665 426.561 136.392 423.79 136.392V142.392ZM433.232 138.793C435.368 136.39 436.294 133.315 436.294 129.888H430.294C430.294 132.221 429.684 133.754 428.748 134.807L433.232 138.793ZM436.294 129.888C436.294 126.461 435.368 123.386 433.232 120.983L428.748 124.969C429.684 126.022 430.294 127.555 430.294 129.888H436.294ZM433.232 120.983C430.923 118.385 427.547 117.384 423.79 117.384V123.384C426.561 123.384 427.985 124.111 428.748 124.969L433.232 120.983ZM423.79 117.384H408.814V123.384H423.79V117.384ZM411.814 120.384V109.44H405.814V120.384H411.814ZM408.814 112.44H422.542V106.44H408.814V112.44ZM422.542 112.44C430.122 112.44 435.348 114.038 438.698 116.76L442.482 112.104C437.64 108.17 430.834 106.44 422.542 106.44V112.44ZM438.716 116.775C442.042 119.436 443.83 123.27 443.83 128.736H449.83C449.83 121.786 447.458 116.084 442.464 112.089L438.716 116.775ZM443.83 128.736V130.08H449.83V128.736H443.83ZM443.83 130.08C443.83 133.95 442.896 136.711 441.325 138.663L445.999 142.425C448.652 139.129 449.83 134.914 449.83 130.08H443.83ZM441.319 138.67C439.702 140.692 437.393 142.248 434.215 143.251L436.021 148.973C440.139 147.672 443.526 145.516 446.005 142.418L441.319 138.67ZM434.261 143.237C430.949 144.225 427.055 144.744 422.542 144.744V150.744C427.501 150.744 431.991 150.175 435.975 148.987L434.261 143.237ZM422.542 144.744H408.814V150.744H422.542V144.744ZM479.525 178.464L478.213 181.162L478.22 181.166L478.228 181.169L479.525 178.464ZM468.005 169.728L465.69 171.637L465.708 171.659L465.727 171.68L468.005 169.728ZM461.189 158.016L458.356 159.003L458.365 159.029L458.374 159.055L461.189 158.016ZM461.285 130.944L464.104 131.969L464.107 131.962L464.109 131.956L461.285 130.944ZM468.197 119.328L465.975 117.312L465.965 117.323L465.955 117.335L468.197 119.328ZM479.813 111.072L481.031 113.813L481.047 113.806L481.063 113.799L479.813 111.072ZM512.165 111.072L510.915 113.799L510.931 113.806L510.946 113.813L512.165 111.072ZM523.685 119.328L521.442 121.321L521.453 121.333L521.463 121.344L523.685 119.328ZM530.693 130.944L527.868 131.956L527.871 131.962L527.873 131.969L530.693 130.944ZM530.693 158.016L527.873 156.991L527.869 157.003L527.865 157.015L530.693 158.016ZM523.877 169.728L521.582 167.796L521.579 167.799L523.877 169.728ZM512.357 178.464L511.06 175.759L511.052 175.762L511.045 175.766L512.357 178.464ZM505.637 167.232L504.418 164.491L504.407 164.496L504.395 164.501L505.637 167.232ZM512.933 161.952L510.691 159.959L510.687 159.963L512.933 161.952ZM517.541 154.176L514.727 153.136L514.72 153.153L514.714 153.171L517.541 154.176ZM517.541 135.168L514.707 136.154L514.717 136.181L514.727 136.208L517.541 135.168ZM512.933 127.488L510.716 129.509L510.732 129.527L510.748 129.544L512.933 127.488ZM505.637 122.4L506.804 119.636L505.637 122.4ZM486.341 122.4L487.508 125.164L486.341 122.4ZM478.949 127.488L476.764 125.432L476.748 125.449L476.732 125.467L478.949 127.488ZM474.341 135.168L471.527 134.128L471.517 134.155L471.507 134.182L474.341 135.168ZM474.341 154.176L471.507 155.162L471.52 155.199L471.534 155.236L474.341 154.176ZM478.949 161.952L476.675 163.91L476.705 163.943L476.735 163.976L478.949 161.952ZM486.341 167.232L485.122 169.973L486.341 167.232ZM496.037 178.824C490.052 178.824 485.009 177.766 480.822 175.759L478.228 181.169C483.385 183.642 489.35 184.824 496.037 184.824V178.824ZM480.836 175.766C476.566 173.69 473.065 171.022 470.283 167.776L465.727 171.68C469.089 175.602 473.267 178.758 478.213 181.162L480.836 175.766ZM470.319 167.819C467.511 164.414 465.415 160.801 464.003 156.977L458.374 159.055C460.035 163.551 462.482 167.746 465.69 171.637L470.319 167.819ZM464.022 157.029C462.644 153.077 461.981 149.347 461.981 145.824H455.981C455.981 150.109 456.789 154.507 458.356 159.003L464.022 157.029ZM461.981 145.824V143.712H455.981V145.824H461.981ZM461.981 143.712C461.981 139.79 462.682 135.881 464.104 131.969L458.465 129.919C456.816 134.455 455.981 139.058 455.981 143.712H461.981ZM464.109 131.956C465.514 128.035 467.618 124.495 470.439 121.321L465.955 117.335C462.631 121.073 460.128 125.277 458.46 129.932L464.109 131.956ZM470.418 121.344C473.252 118.221 476.773 115.706 481.031 113.813L478.594 108.331C473.636 110.534 469.413 113.523 465.975 117.312L470.418 121.344ZM481.063 113.799C485.201 111.903 490.165 110.904 496.037 110.904V104.904C489.492 104.904 483.641 106.017 478.563 108.345L481.063 113.799ZM496.037 110.904C501.839 110.904 506.773 111.901 510.915 113.799L513.415 108.345C508.34 106.019 502.522 104.904 496.037 104.904V110.904ZM510.946 113.813C515.199 115.704 518.679 118.213 521.442 121.321L525.927 117.335C522.546 113.531 518.346 110.536 513.383 108.331L510.946 113.813ZM521.463 121.344C524.341 124.515 526.469 128.048 527.868 131.956L533.517 129.932C531.845 125.264 529.301 121.053 525.906 117.312L521.463 121.344ZM527.873 131.969C529.296 135.881 529.997 139.79 529.997 143.712H535.997C535.997 139.058 535.162 134.455 533.512 129.919L527.873 131.969ZM529.997 143.712V145.824H535.997V143.712H529.997ZM529.997 145.824C529.997 149.33 529.308 153.046 527.873 156.991L533.512 159.041C535.15 154.538 535.997 150.126 535.997 145.824H529.997ZM527.865 157.015C526.522 160.809 524.44 164.401 521.582 167.796L526.171 171.66C529.457 167.759 531.919 163.543 533.521 159.017L527.865 157.015ZM521.579 167.799C518.874 171.023 515.388 173.684 511.06 175.759L513.654 181.169C518.669 178.764 522.864 175.601 526.175 171.657L521.579 167.799ZM511.045 175.766C506.927 177.768 501.954 178.824 496.037 178.824V184.824C502.663 184.824 508.57 183.64 513.668 181.162L511.045 175.766ZM496.037 172.152C499.981 172.152 503.615 171.446 506.878 169.963L504.395 164.501C502.026 165.578 499.26 166.152 496.037 166.152V172.152ZM506.855 169.973C510.106 168.529 512.895 166.52 515.178 163.941L510.687 159.963C509.003 161.864 506.927 163.375 504.418 164.491L506.855 169.973ZM515.175 163.945C517.477 161.355 519.213 158.428 520.367 155.181L514.714 153.171C513.821 155.684 512.484 157.941 510.691 159.959L515.175 163.945ZM520.355 155.216C521.571 151.926 522.173 148.469 522.173 144.864H516.173C516.173 147.787 515.687 150.538 514.727 153.136L520.355 155.216ZM522.173 144.864C522.173 141.032 521.58 137.443 520.355 134.128L514.727 136.208C515.678 138.781 516.173 141.656 516.173 144.864H522.173ZM520.374 134.182C519.218 130.857 517.467 127.928 515.117 125.432L510.748 129.544C512.494 131.4 513.816 133.59 514.707 136.154L520.374 134.182ZM515.15 125.467C512.856 122.951 510.058 121.01 506.804 119.636L504.47 125.164C506.975 126.222 509.042 127.673 510.716 129.509L515.15 125.467ZM506.804 119.636C503.511 118.246 499.907 117.576 496.037 117.576V123.576C499.206 123.576 502.003 124.122 504.47 125.164L506.804 119.636ZM496.037 117.576C492.11 117.576 488.473 118.243 485.174 119.636L487.508 125.164C489.968 124.125 492.795 123.576 496.037 123.576V117.576ZM485.174 119.636C481.927 121.007 479.112 122.938 476.764 125.432L481.133 129.544C482.882 127.686 484.994 126.225 487.508 125.164L485.174 119.636ZM476.732 125.467C474.471 127.947 472.74 130.846 471.527 134.128L477.155 136.208C478.118 133.602 479.459 131.381 481.166 129.509L476.732 125.467ZM471.507 134.182C470.36 137.481 469.805 141.051 469.805 144.864H475.805C475.805 141.637 476.274 138.743 477.174 136.154L471.507 134.182ZM469.805 144.864C469.805 148.448 470.368 151.886 471.507 155.162L477.174 153.19C476.266 150.578 475.805 147.808 475.805 144.864H469.805ZM471.534 155.236C472.745 158.44 474.46 161.337 476.675 163.91L481.222 159.994C479.47 157.959 478.113 155.672 477.147 153.116L471.534 155.236ZM476.735 163.976C479.072 166.533 481.879 168.532 485.122 169.973L487.559 164.491C485.042 163.372 482.921 161.851 481.163 159.928L476.735 163.976ZM485.122 169.973C488.435 171.446 492.09 172.152 496.037 172.152V166.152C492.815 166.152 490.006 165.578 487.559 164.491L485.122 169.973ZM562.587 178.464L561.276 181.162L561.283 181.166L561.29 181.169L562.587 178.464ZM551.067 169.728L548.753 171.637L548.771 171.659L548.789 171.68L551.067 169.728ZM544.251 158.016L541.418 159.003L541.427 159.029L541.437 159.055L544.251 158.016ZM544.347 130.944L547.167 131.969L547.169 131.962L547.171 131.956L544.347 130.944ZM551.259 119.328L549.038 117.312L549.027 117.323L549.017 117.335L551.259 119.328ZM562.875 111.072L564.094 113.813L564.109 113.806L564.125 113.799L562.875 111.072ZM595.227 111.072L593.977 113.799L593.993 113.806L594.009 113.813L595.227 111.072ZM606.747 119.328L604.505 121.321L604.515 121.333L604.526 121.344L606.747 119.328ZM613.755 130.944L610.931 131.956L610.933 131.962L610.936 131.969L613.755 130.944ZM613.755 158.016L610.936 156.991L610.931 157.003L610.927 157.015L613.755 158.016ZM606.939 169.728L604.644 167.796L604.641 167.799L606.939 169.728ZM595.419 178.464L594.122 175.759L594.115 175.762L594.108 175.766L595.419 178.464ZM588.699 167.232L587.481 164.491L587.469 164.496L587.458 164.501L588.699 167.232ZM595.995 161.952L593.753 159.959L593.749 159.963L595.995 161.952ZM600.603 154.176L597.789 153.136L597.783 153.153L597.777 153.171L600.603 154.176ZM600.603 135.168L597.77 136.154L597.779 136.181L597.789 136.208L600.603 135.168ZM595.995 127.488L593.778 129.509L593.794 129.527L593.811 129.544L595.995 127.488ZM588.699 122.4L589.866 119.636L588.699 122.4ZM569.403 122.4L570.57 125.164L569.403 122.4ZM562.011 127.488L559.827 125.432L559.81 125.449L559.794 125.467L562.011 127.488ZM557.403 135.168L554.589 134.128L554.579 134.155L554.57 134.182L557.403 135.168ZM557.403 154.176L554.57 155.162L554.583 155.199L554.597 155.236L557.403 154.176ZM562.011 161.952L559.738 163.91L559.767 163.943L559.797 163.976L562.011 161.952ZM569.403 167.232L568.185 169.973L569.403 167.232ZM579.099 178.824C573.114 178.824 568.071 177.766 563.884 175.759L561.29 181.169C566.447 183.642 572.412 184.824 579.099 184.824V178.824ZM563.899 175.766C559.629 173.69 556.127 171.022 553.345 167.776L548.789 171.68C552.151 175.602 556.33 178.758 561.276 181.162L563.899 175.766ZM553.382 167.819C550.574 164.414 548.477 160.801 547.066 156.977L541.437 159.055C543.097 163.551 545.545 167.746 548.753 171.637L553.382 167.819ZM547.084 157.029C545.707 153.077 545.043 149.347 545.043 145.824H539.043C539.043 150.109 539.852 154.507 541.418 159.003L547.084 157.029ZM545.043 145.824V143.712H539.043V145.824H545.043ZM545.043 143.712C545.043 139.79 545.744 135.881 547.167 131.969L541.528 129.919C539.878 134.455 539.043 139.058 539.043 143.712H545.043ZM547.171 131.956C548.576 128.035 550.681 124.495 553.501 121.321L549.017 117.335C545.694 121.073 543.19 125.277 541.523 129.932L547.171 131.956ZM553.481 121.344C556.315 118.221 559.836 115.706 564.094 113.813L561.657 108.331C556.699 110.534 552.476 113.523 549.038 117.312L553.481 121.344ZM564.125 113.799C568.263 111.903 573.228 110.904 579.099 110.904V104.904C572.555 104.904 566.703 106.017 561.625 108.345L564.125 113.799ZM579.099 110.904C584.902 110.904 589.836 111.901 593.977 113.799L596.477 108.345C591.403 106.019 585.585 104.904 579.099 104.904V110.904ZM594.009 113.813C598.262 115.704 601.742 118.213 604.505 121.321L608.989 117.335C605.608 113.531 601.409 110.536 596.446 108.331L594.009 113.813ZM604.526 121.344C607.403 124.515 609.531 128.048 610.931 131.956L616.579 129.932C614.907 125.264 612.363 121.053 608.969 117.312L604.526 121.344ZM610.936 131.969C612.358 135.881 613.059 139.79 613.059 143.712H619.059C619.059 139.058 618.224 134.455 616.575 129.919L610.936 131.969ZM613.059 143.712V145.824H619.059V143.712H613.059ZM613.059 145.824C613.059 149.33 612.37 153.046 610.936 156.991L616.575 159.041C618.212 154.538 619.059 150.126 619.059 145.824H613.059ZM610.927 157.015C609.585 160.809 607.503 164.401 604.644 167.796L609.234 171.66C612.519 167.759 614.982 163.543 616.583 159.017L610.927 157.015ZM604.641 167.799C601.936 171.023 598.451 173.684 594.122 175.759L596.716 181.169C601.732 178.764 605.926 175.601 609.237 171.657L604.641 167.799ZM594.108 175.766C589.99 177.768 585.017 178.824 579.099 178.824V184.824C585.726 184.824 591.633 183.64 596.731 181.162L594.108 175.766ZM579.099 172.152C583.044 172.152 586.678 171.446 589.941 169.963L587.458 164.501C585.089 165.578 582.322 166.152 579.099 166.152V172.152ZM589.918 169.973C593.169 168.529 595.957 166.52 598.241 163.941L593.749 159.963C592.065 161.864 589.99 163.375 587.481 164.491L589.918 169.973ZM598.237 163.945C600.54 161.355 602.275 158.428 603.43 155.181L597.777 153.171C596.883 155.684 595.547 157.941 593.753 159.959L598.237 163.945ZM603.417 155.216C604.633 151.926 605.235 148.469 605.235 144.864H599.235C599.235 147.787 598.749 150.538 597.789 153.136L603.417 155.216ZM605.235 144.864C605.235 141.032 604.642 137.443 603.417 134.128L597.789 136.208C598.74 138.781 599.235 141.656 599.235 144.864H605.235ZM603.437 134.182C602.28 130.857 600.529 127.928 598.18 125.432L593.811 129.544C595.557 131.4 596.878 133.59 597.77 136.154L603.437 134.182ZM598.212 125.467C595.918 122.951 593.121 121.01 589.866 119.636L587.532 125.164C590.038 126.222 592.104 127.673 593.778 129.509L598.212 125.467ZM589.866 119.636C586.573 118.246 582.97 117.576 579.099 117.576V123.576C582.269 123.576 585.065 124.122 587.532 125.164L589.866 119.636ZM579.099 117.576C575.173 117.576 571.536 118.243 568.236 119.636L570.57 125.164C573.031 124.125 575.858 123.576 579.099 123.576V117.576ZM568.236 119.636C564.99 121.007 562.174 122.938 559.827 125.432L564.196 129.544C565.944 127.686 568.057 126.225 570.57 125.164L568.236 119.636ZM559.794 125.467C557.533 127.947 555.802 130.846 554.589 134.128L560.217 136.208C561.18 133.602 562.521 131.381 564.228 129.509L559.794 125.467ZM554.57 134.182C553.422 137.481 552.867 141.051 552.867 144.864H558.867C558.867 141.637 559.336 138.743 560.237 136.154L554.57 134.182ZM552.867 144.864C552.867 148.448 553.43 151.886 554.57 155.162L560.237 153.19C559.328 150.578 558.867 147.808 558.867 144.864H552.867ZM554.597 155.236C555.807 158.44 557.522 161.337 559.738 163.91L564.285 159.994C562.532 157.959 561.175 155.672 560.21 153.116L554.597 155.236ZM559.797 163.976C562.135 166.533 564.942 168.532 568.185 169.973L570.622 164.491C568.105 163.372 565.984 161.851 564.225 159.928L559.797 163.976ZM568.185 169.973C571.498 171.446 575.153 172.152 579.099 172.152V166.152C575.877 166.152 573.069 165.578 570.622 164.491L568.185 169.973ZM640.995 180H637.995V183H640.995V180ZM640.995 120V117H637.995V120H640.995ZM654.627 120H657.627V117H654.627V120ZM654.627 180V183H657.627V180H654.627ZM620.739 121.92H617.739V124.92H620.739V121.92ZM620.739 109.92V106.92H617.739V109.92H620.739ZM674.883 109.92H677.883V106.92H674.883V109.92ZM674.883 121.92V124.92H677.883V121.92H674.883ZM643.995 180V120H637.995V180H643.995ZM640.995 123H654.627V117H640.995V123ZM651.627 120V180H657.627V120H651.627ZM654.627 177H640.995V183H654.627V177ZM623.739 121.92V109.92H617.739V121.92H623.739ZM620.739 112.92H674.883V106.92H620.739V112.92ZM671.883 109.92V121.92H677.883V109.92H671.883ZM674.883 118.92H620.739V124.92H674.883V118.92ZM731.749 180H728.749V183H731.749V180ZM731.749 109.92V106.92H728.749V109.92H731.749ZM745.381 109.92H748.381V106.92H745.381V109.92ZM745.381 180V183H748.381V180H745.381ZM685.765 180H682.765V183H685.765V180ZM685.765 109.92V106.92H682.765V109.92H685.765ZM699.397 109.92H702.397V106.92H699.397V109.92ZM699.397 180V183H702.397V180H699.397ZM696.901 150.912H693.901V153.912H696.901V150.912ZM696.901 138.912V135.912H693.901V138.912H696.901ZM734.245 138.912H737.245V135.912H734.245V138.912ZM734.245 150.912V153.912H737.245V150.912H734.245ZM734.749 180V109.92H728.749V180H734.749ZM731.749 112.92H745.381V106.92H731.749V112.92ZM742.381 109.92V180H748.381V109.92H742.381ZM745.381 177H731.749V183H745.381V177ZM688.765 180V109.92H682.765V180H688.765ZM685.765 112.92H699.397V106.92H685.765V112.92ZM696.397 109.92V180H702.397V109.92H696.397ZM699.397 177H685.765V183H699.397V177ZM699.901 150.912V138.912H693.901V150.912H699.901ZM696.901 141.912H734.245V135.912H696.901V141.912ZM731.245 138.912V150.912H737.245V138.912H731.245ZM734.245 147.912H696.901V153.912H734.245V147.912Z" fill="#1926B2" mask="url(#path-1-outside-1_65_79)"/>
</g>
<defs>
<filter id="filter0_d_65_79" x="0.304199" y="0.903809" width="757.077" height="192.92" filterUnits="userSpaceOnUse" color-interpolation-filters="sRGB">
<feFlood flood-opacity="0" result="BackgroundImageFix"/>
<feColorMatrix in="SourceAlpha" type="matrix" values="0 0 0 0 0 0 0 0 0 0 0 0 0 0 0 0 0 0 127 0" result="hardAlpha"/>
<feOffset dx="12" dy="12"/>
<feComposite in2="hardAlpha" operator="out"/>
<feColorMatrix type="matrix" values="0 0 0 0 0.0980392 0 0 0 0 0.14902 0 0 0 0 0.698039 0 0 0 1 0"/>
<feBlend mode="normal" in2="BackgroundImageFix" result="effect1_dropShadow_65_79"/>
<feBlend mode="normal" in="SourceGraphic" in2="effect1_dropShadow_65_79" result="shape"/>
</filter>
<linearGradient id="paint0_linear_65_79" x1="376" y1="47" x2="376" y2="201" gradientUnits="userSpaceOnUse">
<stop stop-color="white"/>
<stop offset="1" stop-color="#FFCE1C"/>
</linearGradient>
</defs>
</svg>
